<svg width="64" height="64" viewBox="0 0 64 64" fill="none" xmlns="http://www.w3.org/2000/svg">
<circle cx="32" cy="32" r="32" fill="#ABEAC7"/>
<path fill-rule="evenodd" clip-rule="evenodd" d="M32 17.3334C32.5075 17.3334 32.9709 17.6215 33.1956 18.0765L37.0056 25.7953L45.5261 27.0407C46.0282 27.1141 46.4451 27.4661 46.6016 27.9488C46.7581 28.4315 46.6271 28.9611 46.2636 29.3152L40.0993 35.3192L41.5541 43.8013C41.6399 44.3016 41.4342 44.8071 41.0236 45.1054C40.613 45.4038 40.0686 45.443 39.6194 45.2068L32 41.1998L24.3806 45.2068C23.9313 45.443 23.3869 45.4038 22.9763 45.1054C22.5657 44.8071 22.36 44.3016 22.4458 43.8013L23.9006 35.3192L17.7363 29.3152C17.3728 28.9611 17.2418 28.4315 17.3983 27.9488C17.5548 27.4661 17.9717 27.1141 18.4738 27.0407L26.9943 25.7953L30.8043 18.0765C31.029 17.6215 31.4925 17.3334 32 17.3334ZM32 21.679L29.0756 27.6035C28.8815 27.9967 28.5066 28.2693 28.0728 28.3327L21.5312 29.2888L26.2636 33.8982C26.5781 34.2046 26.7217 34.6461 26.6474 35.0788L25.5309 41.5889L31.3794 38.5133C31.7679 38.309 32.232 38.309 32.6206 38.5133L38.4691 41.5889L37.3525 35.0788C37.2783 34.6461 37.4218 34.2046 37.7363 33.8982L42.4687 29.2888L35.9271 28.3327C35.4933 28.2693 35.1184 27.9967 34.9243 27.6035L32 21.679Z" fill="#171F46"/>
<path fill-rule="evenodd" clip-rule="evenodd" d="M36.7071 29.9595C37.0977 30.35 37.0977 30.9832 36.7071 31.3737L32.2627 35.8182C31.8722 36.2087 31.239 36.2087 30.8485 35.8182L28.6263 33.596C28.2357 33.2054 28.2357 32.5723 28.6263 32.1817C29.0168 31.7912 29.65 31.7912 30.0405 32.1817L31.5556 33.6969L35.2929 29.9595C35.6835 29.569 36.3166 29.569 36.7071 29.9595Z" fill="#171F46"/>
</svg>
