<svg width="64" height="64" viewBox="0 0 64 64" fill="none" xmlns="http://www.w3.org/2000/svg">
<circle cx="32" cy="32" r="32" fill="#CBABEA"/>
<path fill-rule="evenodd" clip-rule="evenodd" d="M28.7088 19.7859C29.4006 19.5337 29.7569 18.7683 29.5046 18.0765C29.2524 17.3847 28.487 17.0284 27.7952 17.2806C25.6699 18.0556 23.8576 19.5065 22.6362 21.4106C21.6474 22.9521 21.0901 24.7218 21.0102 26.5364L19.4767 23.9806C19.0979 23.3492 18.2789 23.1444 17.6474 23.5233C17.016 23.9022 16.8112 24.7212 17.1901 25.3526L20.1901 30.3526C20.569 30.984 21.388 31.1888 22.0194 30.8099L27.0194 27.8099C27.6508 27.4311 27.8556 26.6121 27.4767 25.9806C27.0979 25.3492 26.2789 25.1444 25.6474 25.5233L23.6721 26.7085C23.7224 25.3429 24.1371 24.0097 24.8808 22.8503C25.7871 21.4375 27.1318 20.361 28.7088 19.7859ZM32.1144 30.1143C32.6145 29.6142 33.2928 29.3333 34 29.3333C34.7364 29.3333 35.3334 28.7363 35.3334 27.9999C35.3334 27.2636 34.7364 26.6666 34 26.6666C32.5856 26.6666 31.229 27.2285 30.2288 28.2287C29.5469 28.9107 29.0687 29.7583 28.8334 30.6769C28.1757 30.7589 27.6667 31.32 27.6667 31.9999C27.6667 32.6799 28.1757 33.241 28.8334 33.323C29.0687 34.2416 29.5469 35.0892 30.2288 35.7712C31.229 36.7714 32.5856 37.3333 34 37.3333C34.7364 37.3333 35.3334 36.7363 35.3334 35.9999C35.3334 35.2636 34.7364 34.6666 34 34.6666C33.2928 34.6666 32.6145 34.3857 32.1144 33.8856C31.9482 33.7193 31.8062 33.5334 31.6906 33.3333H34C34.7364 33.3333 35.3334 32.7363 35.3334 31.9999C35.3334 31.2636 34.7364 30.6666 34 30.6666H31.6906C31.8062 30.4665 31.9482 30.2806 32.1144 30.1143ZM41.9808 33.19C42.6122 32.8111 43.4312 33.0158 43.8101 33.6473L46.8101 38.6473C47.1889 39.2787 46.9842 40.0977 46.3527 40.4766C45.7213 40.8555 44.9023 40.6507 44.5234 40.0193L42.9897 37.4631C42.9099 39.2783 42.3523 41.0486 41.363 42.5906C40.1416 44.494 38.3297 45.9444 36.2049 46.7193C35.5131 46.9715 34.7478 46.6152 34.4955 45.9234C34.2432 45.2316 34.5995 44.4663 35.2913 44.214C36.8679 43.639 38.2123 42.5629 39.1186 41.1505C39.8625 39.991 40.2774 38.6574 40.3278 37.2915L38.3527 38.4766C37.7213 38.8555 36.9023 38.6507 36.5234 38.0193C36.1446 37.3878 36.3493 36.5688 36.9808 36.19L41.9808 33.19Z" fill="#171F46"/>
</svg>
