<svg width="64" height="64" viewBox="0 0 64 64" fill="none" xmlns="http://www.w3.org/2000/svg">
<circle cx="32" cy="32" r="32" fill="#F9B9B0"/>
<path fill-rule="evenodd" clip-rule="evenodd" d="M32 20C25.3726 20 20 25.3726 20 32C20 38.6275 25.3726 44 32 44C38.6275 44 44 38.6275 44 32C44 25.3726 38.6275 20 32 20ZM17.3334 32C17.3334 23.8999 23.8999 17.3334 32 17.3334C40.1002 17.3334 46.6667 23.8999 46.6667 32C46.6667 40.1002 40.1002 46.6667 32 46.6667C23.8999 46.6667 17.3334 40.1002 17.3334 32Z" fill="#171F46"/>
<path fill-rule="evenodd" clip-rule="evenodd" d="M32.0001 22.6667C32.7365 22.6667 33.3334 23.2637 33.3334 24.0001V31.176L37.9297 33.4742C38.5883 33.8035 38.8553 34.6044 38.526 35.263C38.1967 35.9217 37.3958 36.1886 36.7371 35.8593L31.4038 33.1927C30.9521 32.9668 30.6667 32.5051 30.6667 32.0001V24.0001C30.6667 23.2637 31.2637 22.6667 32.0001 22.6667Z" fill="#171F46"/>
</svg>
