<svg width="120" height="60" viewBox="0 0 120 60" fill="none" xmlns="http://www.w3.org/2000/svg">
<path fill-rule="evenodd" clip-rule="evenodd" d="M108.313 33.2296H98.2951V21.6324H86.6973V11.6446H98.2951V0.0350189H108.313V11.6446H119.994V21.6324H108.313V33.2296ZM0 11.6034H0.0351601H10.0184H33.3317V21.5912H10.0184V44.798H0V11.6034ZM26.6667 28.2742C35.8748 28.2742 43.3149 35.6916 43.3149 44.8715H33.2965C33.2965 41.1995 30.3499 38.2619 26.6667 38.2619C22.9834 38.2619 20.0368 41.1995 20.0368 44.8715H10.0184C10.0184 35.6916 17.4586 28.2742 26.6667 28.2742ZM53.3334 11.6034H43.3149V44.798H53.3334V21.6485L76.6627 21.6485V11.6607H53.3334V11.6034ZM69.9816 28.2742C79.1897 28.2742 86.6299 35.6916 86.6299 44.8715H76.6115C76.6115 41.1995 73.6649 38.2619 69.9816 38.2619C66.2984 38.2619 63.3518 41.1995 63.3518 44.8715H53.3334C53.3334 35.6916 60.7735 28.2742 69.9816 28.2742ZM57.0902 55.2264C57.0166 55.5202 57.0166 55.8139 57.0166 56.1811V60H56.2063V58.0171C56.1326 58.164 55.9853 58.3109 55.7643 58.4578C55.7417 58.4653 55.7199 58.4728 55.6986 58.4802L55.6559 58.4952C55.4884 58.5542 55.3454 58.6046 55.1013 58.6046C54.8066 58.6046 54.512 58.5312 54.291 58.3843C54.07 58.2374 53.9227 58.0171 53.7753 57.7968L53.7753 57.7968C53.628 57.503 53.5543 57.2093 53.5543 56.9155C53.5543 56.5483 53.628 56.2546 53.7753 55.9608C53.9226 55.6671 54.07 55.5202 54.2909 55.2999L54.291 55.2999C54.512 55.0796 54.8066 55.0795 55.1013 55.0795C55.3959 55.0795 55.6169 55.153 55.7643 55.2264C55.9853 55.3733 56.1326 55.5202 56.2063 55.7405L56.2799 55.153H57.0902V55.2264ZM55.9853 57.7234C56.1326 57.503 56.2063 57.2827 56.2063 56.9155C56.2063 56.5483 56.1326 56.2546 55.9853 56.1077C55.8379 55.8874 55.6169 55.8139 55.3223 55.8139C55.0276 55.8139 54.8066 55.8874 54.6593 56.1077C54.512 56.328 54.4383 56.5483 54.4383 56.9155C54.4383 57.2827 54.512 57.503 54.6593 57.7234C54.8066 57.9437 55.0276 58.0171 55.3223 58.0171C55.6169 58.0171 55.8379 57.8702 55.9853 57.7234ZM61.0681 58.6047V55.2264H60.1842V57.0624C60.1842 57.3562 60.1105 57.5765 59.9632 57.7234C59.8158 57.8703 59.5948 57.9437 59.3738 57.9437C59.1529 57.9437 59.0055 57.9437 58.9319 57.7968C58.8582 57.7234 58.7845 57.5031 58.7845 57.2827V55.2264H57.9742V57.2827C57.9742 58.2375 58.4162 58.6781 59.2265 58.6781C59.4475 58.6781 59.6685 58.6046 59.8158 58.5312L59.8445 58.5123L59.8895 58.4829C60.0699 58.3654 60.1927 58.2854 60.2578 58.0906V58.6047H61.0681ZM64.9724 56.989H62.6151C62.6151 57.3562 62.6888 57.6499 62.9098 57.7968C63.0571 57.9437 63.2781 58.0171 63.6464 58.0171C64.0147 58.0171 64.3831 57.8703 64.6777 57.6499L64.8987 58.2374C64.7514 58.3843 64.5304 58.4578 64.3094 58.5312C64.0884 58.6046 63.8674 58.6781 63.5728 58.6781C63.0571 58.6781 62.6151 58.5312 62.2468 58.2374C61.9521 57.9437 61.8048 57.5031 61.8048 56.989C61.8048 56.6218 61.8785 56.328 62.0258 56.1077C62.1731 55.8139 62.3205 55.6671 62.6151 55.5202C62.8361 55.3733 63.1308 55.2999 63.4991 55.2999C63.9411 55.2999 64.3094 55.4468 64.6041 55.7405C64.8987 56.0343 64.9724 56.4749 64.9724 56.989ZM62.9834 55.9608C62.8361 56.1077 62.7624 56.2546 62.6888 56.5483H64.2357C64.2357 56.328 64.1621 56.1077 64.0147 55.9608C63.8674 55.8139 63.7201 55.7405 63.4991 55.7405C63.2781 55.7405 63.0571 55.8139 62.9834 55.9608ZM70.8656 56.5483C70.8656 56.1077 70.7919 55.7405 70.5709 55.5202C70.4236 55.2999 70.1289 55.153 69.8343 55.2264C69.6133 55.2264 69.3923 55.2264 69.1713 55.3733C69.0239 55.4468 68.8029 55.5936 68.7293 55.8139C68.582 55.3733 68.2136 55.153 67.698 55.153C67.4539 55.153 67.3109 55.2034 67.1434 55.2624C67.1087 55.2747 67.0729 55.2873 67.035 55.2999C66.814 55.3733 66.6667 55.5202 66.593 55.7405L66.5193 55.2264H65.709C65.7827 55.5202 65.7827 55.8139 65.7827 56.1811V58.6046H66.593V56.6952C66.593 56.4015 66.6667 56.1811 66.814 56.0343C66.8877 55.8874 67.1087 55.8139 67.3297 55.8139C67.5506 55.8139 67.698 55.8139 67.7716 55.9608C67.8453 56.1077 67.919 56.2546 67.919 56.5483V58.6046H68.7293V56.6952C68.7293 56.4015 68.8029 56.1811 68.9503 56.0343C69.0239 55.8874 69.2449 55.8139 69.4659 55.8139C69.6869 55.8139 69.8343 55.8139 69.9079 55.9608C69.9816 56.1077 70.0552 56.2546 70.0552 56.5483V58.6046H70.8656V56.5483ZM73.7385 57.6499C74.1068 57.9437 74.4752 58.0171 74.9908 58.0171C75.2118 58.0171 75.3591 58.0171 75.4328 57.9437C75.5065 57.8703 75.5801 57.7968 75.5801 57.6499C75.5801 57.5765 75.5065 57.5031 75.4328 57.4296C75.3591 57.3562 75.2118 57.2827 75.0645 57.2827L74.4752 57.1359C73.8858 56.989 73.5175 56.6952 73.5175 56.1811C73.5175 55.9608 73.5912 55.8139 73.6648 55.6671C73.8122 55.5202 73.9595 55.3733 74.1805 55.2999C74.4015 55.2264 74.6225 55.153 74.9171 55.153C75.1381 55.153 75.3591 55.153 75.5801 55.2264C75.8011 55.2999 76.0221 55.3733 76.1694 55.5202L75.9484 56.1077C75.5801 55.8874 75.2855 55.7405 74.9171 55.7405C74.6961 55.7405 74.5488 55.7405 74.4752 55.8139C74.4015 55.8874 74.3278 55.9608 74.3278 56.1077C74.3278 56.1811 74.3278 56.2546 74.4015 56.328C74.447 56.3734 74.4925 56.3908 74.5555 56.4147C74.5943 56.4295 74.6399 56.4469 74.6961 56.4749L75.2855 56.6218C75.6538 56.6952 75.8748 56.8421 76.0221 56.989C76.1694 57.1359 76.2431 57.3562 76.2431 57.5765C76.2431 57.8703 76.0958 58.164 75.8748 58.3109C75.6538 58.4578 75.2855 58.6046 74.8435 58.6046C74.3278 58.6781 73.8858 58.5312 73.5175 58.2375L73.7385 57.6499ZM80.3683 58.6046V55.2264H79.558V55.7405C79.4844 55.5202 79.337 55.3733 79.116 55.2999C78.895 55.2264 78.674 55.153 78.453 55.153C78.1584 55.153 77.8637 55.153 77.6427 55.3733C77.4217 55.5936 77.2744 55.7405 77.1271 56.0343C76.9798 56.328 76.9061 56.6218 76.9061 56.989C76.9061 57.2827 76.9798 57.5765 77.1271 57.8703C77.2744 58.0906 77.4217 58.3109 77.6427 58.4578C77.8637 58.6046 78.1584 58.6781 78.453 58.6781C78.674 58.6781 78.895 58.6046 79.116 58.5312C79.337 58.4578 79.4844 58.3109 79.558 58.0906V58.6046H80.3683ZM79.558 56.9155C79.558 57.2827 79.4844 57.5031 79.337 57.7234L79.3136 57.7391C79.285 57.7586 79.2575 57.7779 79.2307 57.7968L79.2301 57.7973L79.2294 57.7977L79.2287 57.7982C79.0611 57.9163 78.9182 58.0171 78.674 58.0171C78.3794 58.0171 78.1584 57.9437 78.0111 57.7234C77.8637 57.5031 77.7901 57.2827 77.7901 56.9155C77.7901 56.5483 77.8637 56.328 78.0111 56.1077C78.1584 55.8874 78.3794 55.8139 78.674 55.8139C78.9687 55.8139 79.1897 55.8874 79.337 56.1077C79.4844 56.2546 79.558 56.5483 79.558 56.9155ZM84.0516 55.3733C84.2726 55.5202 84.4199 55.7405 84.5672 55.9608C84.7145 56.2546 84.7882 56.5483 84.7882 56.8421C84.7882 57.2093 84.7145 57.5031 84.5672 57.7968C84.4199 58.0906 84.2726 58.2374 84.0516 58.3843C83.8306 58.5312 83.5359 58.6046 83.3149 58.6046C83.0939 58.6046 82.8729 58.5312 82.6519 58.4578C82.4309 58.3843 82.2836 58.2374 82.2099 58.0171V58.6046H81.3996V53.6842H82.2099V55.7405C82.2836 55.5202 82.4309 55.3733 82.6519 55.2999L82.652 55.2999C82.873 55.2264 83.0939 55.153 83.3149 55.153C83.5359 55.153 83.8306 55.2264 84.0516 55.3733ZM83.6832 57.7234C83.8306 57.5031 83.9042 57.2827 83.9042 56.9155C83.9042 56.5483 83.8306 56.328 83.6832 56.1077C83.5359 55.8874 83.3149 55.8139 83.0202 55.8139C82.7256 55.8139 82.5046 55.8874 82.3573 56.1077C82.2099 56.328 82.1363 56.5483 82.1363 56.9155C82.1363 57.2827 82.2099 57.5765 82.3573 57.7234C82.5046 57.9437 82.7256 58.0171 83.0202 58.0171C83.3149 58.0171 83.5359 57.8703 83.6832 57.7234ZM86.1879 56.989H88.4715H88.5451C88.5451 56.4749 88.4715 56.0343 88.1768 55.7405C87.8821 55.4468 87.5138 55.2999 87.0718 55.2999C86.7035 55.2999 86.4089 55.3733 86.1879 55.5202C85.8932 55.6671 85.7459 55.8139 85.5985 56.1077C85.4512 56.328 85.3775 56.6218 85.3775 56.989C85.3775 57.5031 85.5249 57.9437 85.8195 58.2374C86.1879 58.5312 86.6299 58.6781 87.1455 58.6781C87.4402 58.6781 87.6612 58.6046 87.8821 58.5312C88.1031 58.4578 88.3241 58.3843 88.4715 58.2374L88.2505 57.6499C87.9558 57.8703 87.5875 58.0171 87.2192 58.0171C86.8508 58.0171 86.6298 57.9437 86.4825 57.7968C86.2615 57.6499 86.1879 57.3562 86.1879 56.989ZM86.1879 56.5483C86.2615 56.2546 86.3352 56.1077 86.4825 55.9608C86.6298 55.8139 86.7772 55.7405 86.9982 55.7405C87.2192 55.7405 87.3665 55.8139 87.5138 55.9608C87.6612 56.1077 87.7348 56.328 87.7348 56.5483H86.1879ZM90.0921 57.6499V58.2374C90.0921 58.4577 90.0184 58.678 89.9448 58.8983L89.9447 58.8984C89.8711 59.1187 89.7237 59.2656 89.5027 59.4859L89.1344 59.1922C89.3143 59.0128 89.3966 58.8335 89.4607 58.6938C89.4753 58.6619 89.489 58.632 89.5027 58.6046H89.1344V57.6499H90.0921ZM93.9226 55.2264V54.9327C93.9226 54.5655 94.1436 54.3452 94.512 54.3452C94.5425 54.3452 94.573 54.3578 94.6087 54.3725C94.6593 54.3934 94.7203 54.4186 94.8066 54.4186V53.7576C94.6593 53.6842 94.512 53.6842 94.291 53.6842C93.9226 53.6842 93.628 53.7576 93.407 53.978C93.186 54.1983 93.1123 54.5655 93.1123 54.9327V55.2264H92.4493V55.8874H93.1123V58.6046H93.9226V55.8874H94.6593V55.2264H93.9226ZM98.6372 55.2264V58.6046H97.8269V58.0906C97.7532 58.3109 97.6059 58.4578 97.3849 58.5312C97.1639 58.6046 96.9429 58.6781 96.7219 58.6781C96.4273 58.6781 96.1326 58.6046 95.9116 58.4578C95.6906 58.3109 95.5433 58.0906 95.3959 57.8703C95.2486 57.5765 95.1749 57.2827 95.1749 56.989C95.1749 56.6218 95.2486 56.328 95.3959 56.0343C95.5433 55.7405 95.6906 55.5936 95.9116 55.3733C96.1326 55.153 96.4273 55.153 96.7219 55.153C96.9429 55.153 97.1639 55.2264 97.3849 55.2999C97.6059 55.3733 97.7532 55.5202 97.8269 55.7405V55.2264H98.6372ZM97.5322 57.7234C97.6795 57.5031 97.7532 57.2827 97.7532 56.9155C97.7532 56.5483 97.6795 56.2546 97.5322 56.1077C97.3849 55.8874 97.1639 55.8139 96.8692 55.8139C96.5746 55.8139 96.3536 55.8874 96.2063 56.1077C96.0589 56.328 95.9853 56.5483 95.9853 56.9155C95.9853 57.2827 96.0589 57.5031 96.2063 57.7234C96.3536 57.9437 96.5746 58.0171 96.8692 58.0171C97.1639 58.0171 97.3849 57.8703 97.5322 57.7234ZM102.32 57.9437H100.405L102.173 55.814V55.2264H99.3739V55.8874H101.215L99.3739 58.0171V58.6047H102.32V57.9437ZM107.772 55.3733C107.993 55.5202 108.14 55.7405 108.287 55.9608C108.435 56.2546 108.508 56.5483 108.508 56.8421C108.508 57.2093 108.435 57.5031 108.287 57.7968C108.14 58.0906 107.993 58.2374 107.772 58.3843C107.551 58.5312 107.256 58.6046 107.035 58.6046C106.814 58.6046 106.593 58.5312 106.372 58.4578C106.151 58.3843 106.004 58.2374 105.93 58.0171V58.6046H105.12V53.6842H105.93V55.7405C106.004 55.5202 106.151 55.3733 106.372 55.2999C106.593 55.2264 106.814 55.153 107.035 55.153C107.256 55.153 107.551 55.2264 107.772 55.3733ZM107.403 57.7234C107.551 57.5031 107.624 57.2827 107.624 56.9155C107.624 56.5483 107.551 56.328 107.403 56.1077C107.256 55.8874 107.035 55.8139 106.74 55.8139C106.446 55.8139 106.225 55.8874 106.077 56.1077C105.93 56.328 105.856 56.5483 105.856 56.9155C105.856 57.2827 105.93 57.5765 106.077 57.7234C106.225 57.9437 106.446 58.0171 106.74 58.0171C107.035 58.0171 107.256 57.8703 107.403 57.7234ZM109.834 56.989H112.192C112.192 56.4749 112.118 56.0343 111.823 55.7405C111.529 55.4468 111.16 55.2999 110.718 55.2999C110.35 55.2999 110.055 55.3733 109.834 55.5202C109.54 55.6671 109.392 55.8139 109.245 56.1077C109.098 56.328 109.024 56.6218 109.024 56.989C109.024 57.5031 109.171 57.9437 109.466 58.2374C109.834 58.5312 110.276 58.6781 110.792 58.6781C111.087 58.6781 111.308 58.6046 111.529 58.5312C111.75 58.4578 111.971 58.3843 112.118 58.2374L111.897 57.6499C111.602 57.8703 111.234 58.0171 110.866 58.0171C110.497 58.0171 110.276 57.9437 110.129 57.7968C109.908 57.6499 109.834 57.3562 109.834 56.989ZM109.908 56.5483C109.982 56.2546 110.055 56.1077 110.203 55.9608C110.35 55.8139 110.497 55.7405 110.718 55.7405C110.939 55.7405 111.087 55.8139 111.234 55.9608C111.381 56.1077 111.455 56.328 111.455 56.5483H109.908ZM117.79 55.5202C118.011 55.7405 118.085 56.1077 118.085 56.5483V58.6046H117.274V56.5483C117.274 56.2546 117.201 56.1077 117.127 55.9608C117.053 55.8139 116.906 55.8139 116.685 55.8139C116.464 55.8139 116.243 55.8874 116.169 56.0343C116.022 56.1811 115.948 56.4015 115.948 56.6952V58.6046H115.138V56.5483C115.138 56.2546 115.064 56.1077 114.991 55.9608C114.917 55.8139 114.77 55.8139 114.549 55.8139C114.328 55.8139 114.107 55.8874 114.033 56.0343C113.886 56.1811 113.812 56.4015 113.812 56.6952V58.6046H113.002V56.1811C113.002 55.8139 113.002 55.5202 112.928 55.2264H113.738L113.812 55.7405C113.886 55.5202 114.033 55.3733 114.254 55.2999C114.292 55.2873 114.328 55.2748 114.362 55.2626L114.363 55.2624C114.53 55.2034 114.673 55.153 114.917 55.153C115.433 55.153 115.801 55.3733 115.948 55.8139C116.022 55.5936 116.243 55.4468 116.39 55.3733C116.611 55.2264 116.832 55.2264 117.053 55.2264C117.348 55.153 117.643 55.2999 117.79 55.5202ZM119.926 57.6499H118.969V58.6046H119.926V57.6499Z" fill="#171F46"/>
</svg>
