<svg width="120" height="45" viewBox="0 0 120 45" fill="none" xmlns="http://www.w3.org/2000/svg">
<g clip-path="url(#clip0)">
<path d="M107.983 21.58H98.0042V33.2225H107.983V21.58Z" fill="#F0513A"/>
<path d="M107.983 0H98.0042V11.6424H107.983V0Z" fill="#F0513A"/>
<path d="M9.97921 21.58H0V44.8233H9.97921V21.58Z" fill="#DB1E3B"/>
<path d="M33.2225 11.6424H0V21.6216H33.2225V11.6424Z" fill="#C5E8F2"/>
<path d="M26.5697 28.2328C17.3805 28.2328 9.97925 35.6757 9.97925 44.8233H19.9585C19.9585 41.1642 22.9106 38.2121 26.5697 38.2121C30.2287 38.2121 33.1809 41.1642 33.1809 44.8233H43.1601C43.2017 35.6757 35.7589 28.2328 26.5697 28.2328Z" fill="#FEC35A"/>
<path d="M53.1809 21.58H43.2017V44.8233H53.1809V21.58Z" fill="#5CB5E6"/>
<path d="M76.4241 11.6424H43.2017V21.6216H76.4241V11.6424Z" fill="#DB1E3B"/>
<path d="M119.584 11.6424H86.3618V21.6216H119.584V11.6424Z" fill="#5CB5E6"/>
<path d="M69.7713 28.2328C60.5822 28.2328 53.1809 35.6757 53.1809 44.8233H63.1601C63.1601 41.1642 66.1123 38.2121 69.7713 38.2121C73.4304 38.2121 76.3826 41.1642 76.3826 44.8233H86.3618C86.3618 35.6757 78.919 28.2328 69.7713 28.2328Z" fill="#F0513A"/>
</g>
<defs>
<clipPath id="clip0">
<rect width="120" height="45" fill="white"/>
</clipPath>
</defs>
</svg>
