<svg width="120" height="45" viewBox="0 0 120 45" fill="none" xmlns="http://www.w3.org/2000/svg">
<g clip-path="url(#clip0)">
<path fill-rule="evenodd" clip-rule="evenodd" d="M119.975 11.6367H108.339V0H98.3224V11.6367H86.6121V21.653H98.3224V33.2897H108.339V21.653H119.975V11.6367ZM33.2897 21.653V11.6367H10.0164H0V21.653V45H10.0164V21.653H33.2897ZM26.6612 28.3552C17.455 28.3552 10.0164 35.7938 10.0164 45H20.0327C20.0327 41.3175 22.9787 38.3715 26.6612 38.3715C30.3437 38.3715 33.2897 41.3175 33.2897 45H43.3061L53.3224 45V21.653H76.6694V11.6367H53.3224H43.306V21.653V44.9745C43.2923 35.78 35.8589 28.3552 26.6612 28.3552ZM53.3224 45C53.3224 35.7938 60.761 28.3552 69.9673 28.3552C79.1735 28.3552 86.6121 35.7938 86.6121 45H76.5957C76.5957 41.3175 73.6497 38.3715 69.9673 38.3715C66.2848 38.3715 63.3388 41.3175 63.3388 45H53.3224Z" fill="white"/>
</g>
<defs>
<clipPath id="clip0">
<rect width="120" height="45" fill="white"/>
</clipPath>
</defs>
</svg>
