<svg width="64" height="64" viewBox="0 0 64 64" fill="none" xmlns="http://www.w3.org/2000/svg">
<circle cx="32" cy="32" r="32" fill="#FFE7BD"/>
<path fill-rule="evenodd" clip-rule="evenodd" d="M38.077 20.0373C37.433 19.9646 36.7782 19.9856 36.1334 20.1031C34.8001 20.3461 33.5726 20.9895 32.6143 21.9478C31.6561 22.906 31.0126 24.1336 30.7697 25.4668C30.5268 26.8001 30.6959 28.1757 31.2546 29.4103C31.4834 29.9159 31.3751 30.5104 30.9827 30.9028L21.7694 40.1162C21.489 40.3965 21.3315 40.7768 21.3315 41.1733C21.3315 41.5699 21.489 41.9502 21.7694 42.2305C22.0497 42.5109 22.43 42.6684 22.8266 42.6684C23.2231 42.6684 23.6034 42.5109 23.8837 42.2305L33.0971 33.0172C33.4895 32.6248 34.084 32.5165 34.5896 32.7453C35.8242 33.304 37.1998 33.4731 38.5331 33.2302C39.8663 32.9873 41.0939 32.3438 42.0521 31.3856C43.0104 30.4273 43.6538 29.1998 43.8968 27.8665C44.0143 27.2217 44.0353 26.5669 43.9626 25.9229L40.5333 29.3523C40.0348 29.8409 39.3646 30.1145 38.6666 30.1145C37.9685 30.1145 37.2984 29.8408 36.7999 29.3522L36.7904 29.3429L34.6477 27.2001C34.159 26.7016 33.8854 26.0314 33.8854 25.3333C33.8854 24.6353 34.1591 23.9652 34.6477 23.4667L34.657 23.4572L38.077 20.0373ZM35.6554 17.4797C37.5219 17.1396 39.4477 17.3764 41.1763 18.1586C41.575 18.3391 41.8598 18.7037 41.9383 19.1343C42.0168 19.565 41.8789 20.0067 41.5694 20.3162L36.5522 25.3333L38.6666 27.4477L43.6837 22.4305C43.9932 22.121 44.4349 21.9832 44.8656 22.0616C45.2962 22.1401 45.6608 22.4249 45.8413 22.8237C46.6235 24.5522 46.8603 26.478 46.5202 28.3445C46.1802 30.2111 45.2793 31.9296 43.9377 33.2712C42.5962 34.6128 40.8776 35.5136 39.0111 35.8537C37.4545 36.1373 35.8566 36.0197 34.3664 35.5191L25.7694 44.1162C24.9889 44.8966 23.9303 45.3351 22.8266 45.3351C21.7228 45.3351 20.6642 44.8966 19.8837 44.1162C19.1033 43.3357 18.6648 42.2771 18.6648 41.1733C18.6648 40.0696 19.1033 39.011 19.8837 38.2305L28.4808 29.6335C27.9802 28.1433 27.8626 26.5454 28.1462 24.9888C28.4863 23.1223 29.3871 21.4037 30.7287 20.0622C32.0703 18.7206 33.7888 17.8198 35.6554 17.4797Z" fill="#171F46"/>
</svg>
