<svg width="120" height="60" viewBox="0 0 120 60" fill="none" xmlns="http://www.w3.org/2000/svg">
<path d="M108.359 21.58H98.345V33.2225H108.359V21.58Z" fill="#F0513A"/>
<path d="M108.359 0H98.345V11.6424H108.359V0Z" fill="#F0513A"/>
<path d="M10.0139 21.58H0V44.8233H10.0139V21.58Z" fill="#DB1E3B"/>
<path d="M33.338 11.6424H0V21.6216H33.338V11.6424Z" fill="#C5E8F2"/>
<path d="M26.662 28.2328C17.4409 28.2328 10.0139 35.6757 10.0139 44.8233H20.0278C20.0278 41.1642 22.9903 38.2121 26.662 38.2121C30.3338 38.2121 33.2963 41.1642 33.2963 44.8233H43.3102C43.3519 35.6757 35.8832 28.2328 26.662 28.2328Z" fill="#FEC35A"/>
<path d="M53.3657 21.58H43.3518V44.8233H53.3657V21.58Z" fill="#5CB5E6"/>
<path d="M76.6898 11.6424H43.3518V21.6216H76.6898V11.6424Z" fill="#DB1E3B"/>
<path d="M120 11.6424H86.6621V21.6216H120V11.6424Z" fill="#5CB5E6"/>
<path d="M70.0138 28.2328C60.7927 28.2328 53.3657 35.6757 53.3657 44.8233H63.3796C63.3796 41.1642 66.3421 38.2121 70.0138 38.2121C73.6856 38.2121 76.6481 41.1642 76.6481 44.8233H86.662C86.662 35.6757 79.1933 28.2328 70.0138 28.2328Z" fill="#F0513A"/>
<path d="M56.2031 55.8004C56.1196 55.5925 55.9527 55.4262 55.7441 55.3014C55.5355 55.1767 55.3269 55.1351 55.0765 55.1351C54.7844 55.1351 54.5341 55.2183 54.2838 55.343C54.0334 55.4678 53.8665 55.7173 53.7413 55.9667C53.6162 56.2162 53.5327 56.5489 53.5327 56.8815C53.5327 57.2141 53.5744 57.5468 53.6996 57.7963C53.8248 58.0457 53.9917 58.2536 54.242 58.42C54.4507 58.5447 54.7427 58.6279 55.0348 58.6279C55.2851 58.6279 55.4938 58.5863 55.6607 58.4615C55.8693 58.3784 55.9945 58.2121 56.0779 58.0457V60H56.9124V56.1746C56.9124 55.8004 56.9124 55.5094 56.9541 55.2183H56.1614L56.2031 55.8004ZM55.9527 57.6715C55.7858 57.8794 55.5772 57.9626 55.3269 57.9626C55.0348 57.9626 54.8262 57.8794 54.6593 57.6715C54.4924 57.5052 54.4089 57.2141 54.4089 56.8815C54.4089 56.5489 54.4924 56.2578 54.6593 56.0499C54.8262 55.842 55.0348 55.7588 55.2851 55.7588C55.5772 55.7588 55.7858 55.842 55.9527 56.0499C56.1196 56.2578 56.1614 56.5073 56.1614 56.8815C56.2031 57.2141 56.1196 57.5052 55.9527 57.6715Z" fill="#FEC35A"/>
<path d="M60.2086 57.0894C60.2086 57.3389 60.1251 57.5884 60 57.7131C59.8331 57.8794 59.6662 57.9626 59.4158 57.9626C59.2072 57.9626 59.0403 57.921 58.9568 57.7963C58.8734 57.6715 58.7899 57.5052 58.7899 57.2557V55.2183H57.9554V57.2557C57.9554 58.1705 58.3727 58.6279 59.2072 58.6279C59.4575 58.6279 59.6244 58.5863 59.8331 58.4615C60 58.3784 60.1669 58.2121 60.2503 58.0457V58.5447H61.0848V55.1767H60.2503V57.0894H60.2086Z" fill="#FEC35A"/>
<path d="M63.4632 55.1351C63.1294 55.1351 62.8791 55.2183 62.6287 55.343C62.3784 55.4678 62.1697 55.7173 62.0446 55.9667C61.9194 56.2162 61.8359 56.5489 61.8359 56.8815C61.8359 57.422 62.0028 57.8378 62.2949 58.1705C62.6287 58.4615 63.0459 58.6278 63.5884 58.6278C63.8387 58.6278 64.0473 58.5863 64.2977 58.5031C64.548 58.4199 64.7149 58.3368 64.8818 58.212L64.6315 57.6299C64.2977 57.8794 63.9639 58.0041 63.5884 58.0041C63.2546 58.0041 63.046 57.921 62.8791 57.7547C62.7122 57.5883 62.6287 57.3389 62.6287 56.9646H64.9653V56.8399C64.9653 56.2994 64.8401 55.9251 64.548 55.5925C64.2977 55.2599 63.9222 55.1351 63.4632 55.1351ZM62.6704 56.5073C62.7122 56.2578 62.7956 56.0499 62.9208 55.9251C63.046 55.8004 63.2546 55.7172 63.4632 55.7172C63.6718 55.7172 63.8804 55.8004 64.0056 55.9251C64.1308 56.0499 64.2142 56.2578 64.256 56.5073H62.6704Z" fill="#FEC35A"/>
<path d="M69.7219 55.1351C69.4715 55.1351 69.2629 55.1767 69.0543 55.3014C68.8457 55.4262 68.7205 55.5509 68.5953 55.7588C68.4284 55.343 68.0946 55.1351 67.5939 55.1351C67.3436 55.1351 67.1349 55.1767 66.968 55.3014C66.8011 55.4262 66.6342 55.5509 66.5508 55.7588L66.5091 55.2183H65.7163C65.758 55.5094 65.758 55.8004 65.758 56.1746V58.5863H66.5925V56.7152C66.5925 56.4241 66.676 56.2162 66.8012 56.0499C66.9263 55.8836 67.1349 55.8004 67.3436 55.8004C67.5522 55.8004 67.6774 55.842 67.7608 55.9667C67.8443 56.0915 67.886 56.2578 67.886 56.5489V58.5863H68.7205V56.7152C68.7205 56.4241 68.8039 56.2162 68.9291 56.0499C69.0543 55.8836 69.2212 55.8004 69.4715 55.8004C69.6801 55.8004 69.8053 55.842 69.8888 55.9667C69.9722 56.0915 70.0139 56.2578 70.0139 56.5489V58.5863H70.8484V56.5073C70.8484 56.0499 70.765 55.6757 70.5564 55.4678C70.3895 55.2599 70.0974 55.1351 69.7219 55.1351Z" fill="#FEC35A"/>
<path d="M75.3964 56.632L74.8122 56.5073C74.6453 56.4657 74.5619 56.4241 74.4784 56.341C74.395 56.2994 74.395 56.2162 74.395 56.0915C74.395 55.9667 74.4367 55.8836 74.5619 55.8004C74.6871 55.7172 74.8122 55.6757 75.0209 55.6757C75.3964 55.6757 75.7302 55.8004 76.064 56.0499L76.3143 55.4678C76.1474 55.343 75.9388 55.2183 75.7302 55.1351C75.5216 55.052 75.2712 55.0104 75.0209 55.0104C74.7288 55.0104 74.5202 55.052 74.3115 55.1351C74.1029 55.2183 73.936 55.343 73.8108 55.5094C73.6857 55.6757 73.6439 55.842 73.6439 56.0499C73.6439 56.5489 73.936 56.8399 74.5619 57.0062L75.1043 57.131C75.2712 57.1725 75.3964 57.2141 75.4798 57.2973C75.5633 57.3389 75.605 57.422 75.605 57.5468C75.605 57.6715 75.5633 57.7547 75.4381 57.8378C75.3129 57.921 75.1878 57.921 74.9791 57.921C74.5202 57.921 74.1029 57.7963 73.7274 57.5052L73.4771 58.0873C73.8526 58.3784 74.3115 58.5031 74.9374 58.5031C75.3547 58.5031 75.7302 58.42 75.9388 58.2121C76.1892 58.0457 76.3143 57.7963 76.3143 57.4636C76.3143 57.2141 76.2309 57.0062 76.064 56.8399C75.9805 56.8399 75.7302 56.7152 75.3964 56.632Z" fill="#FEC35A"/>
<path d="M79.5272 55.7172C79.4437 55.5509 79.2768 55.3846 79.0682 55.3014C78.8596 55.1767 78.651 55.1351 78.4006 55.1351C78.1086 55.1351 77.8582 55.2183 77.6079 55.343C77.3992 55.5094 77.1906 55.7173 77.0654 55.9667C76.9403 56.2162 76.8568 56.5489 76.8568 56.8815C76.8568 57.2141 76.8985 57.5468 77.0237 57.7962C77.1489 58.0457 77.3158 58.2536 77.5661 58.4199C77.7748 58.5447 78.0668 58.6278 78.3589 58.6278C78.6093 58.6278 78.8179 58.5863 79.0265 58.4615C79.2351 58.3368 79.3603 58.2121 79.4855 58.0457V58.5863H80.32V55.2183H79.4855V55.7172H79.5272ZM79.3186 57.6715C79.1517 57.8794 78.943 57.9626 78.6927 57.9626C78.4006 57.9626 78.192 57.8794 78.0251 57.6715C77.8582 57.5052 77.7748 57.2141 77.7748 56.8815C77.7748 56.5489 77.8582 56.2578 78.0251 56.0499C78.192 55.842 78.4006 55.7588 78.651 55.7588C78.943 55.7588 79.1517 55.842 79.3186 56.0499C79.4855 56.2578 79.5272 56.5073 79.5272 56.8815C79.5272 57.2141 79.4437 57.5052 79.3186 57.6715Z" fill="#FEC35A"/>
<path d="M84.0334 55.343C83.8247 55.2183 83.5327 55.1351 83.2406 55.1351C82.9903 55.1351 82.7816 55.1767 82.573 55.3015C82.3644 55.4262 82.2392 55.5509 82.114 55.7173V53.6798H81.2795V58.5863H82.114V58.0457C82.1975 58.2536 82.3644 58.3784 82.5313 58.5031C82.6982 58.6279 82.9485 58.6694 83.1989 58.6694C83.4909 58.6694 83.7413 58.5863 83.9499 58.4615C84.1585 58.2952 84.3672 58.0873 84.4923 57.8378C84.6175 57.5884 84.701 57.2557 84.701 56.9231C84.701 56.5904 84.6592 56.2578 84.5341 56.0083C84.4089 55.6757 84.242 55.5094 84.0334 55.343ZM83.6578 57.6715C83.4909 57.8794 83.2823 57.9626 83.032 57.9626C82.7399 57.9626 82.5313 57.8794 82.3644 57.6715C82.1975 57.4636 82.1558 57.2141 82.1558 56.8399C82.1558 56.5073 82.2392 56.2162 82.3644 56.0083C82.5313 55.8004 82.7399 55.7173 83.032 55.7173C83.3241 55.7173 83.5327 55.8004 83.6996 56.0083C83.8665 56.2162 83.9082 56.4657 83.9082 56.7983C83.9082 57.2141 83.8247 57.5052 83.6578 57.6715Z" fill="#FEC35A"/>
<path d="M86.9958 55.1351C86.662 55.1351 86.4116 55.2183 86.1613 55.343C85.9109 55.4678 85.7023 55.7173 85.5772 55.9667C85.452 56.2162 85.3685 56.5489 85.3685 56.8815C85.3685 57.422 85.5354 57.8378 85.8275 58.1705C86.1196 58.5031 86.5785 58.6278 87.121 58.6278C87.3713 58.6278 87.5799 58.5863 87.8303 58.5031C88.0806 58.4199 88.2475 58.3368 88.4144 58.212L88.1641 57.6299C87.8303 57.8794 87.4965 58.0041 87.121 58.0041C86.7872 58.0041 86.5785 57.921 86.4116 57.7547C86.2447 57.5883 86.1613 57.3389 86.1613 56.9646H88.4979V56.8399C88.4979 56.2994 88.3727 55.9251 88.0806 55.5925C87.7886 55.2599 87.4548 55.1351 86.9958 55.1351ZM86.203 56.5073C86.2447 56.2578 86.3282 56.0499 86.4534 55.9251C86.5785 55.8004 86.7872 55.7172 86.9958 55.7172C87.2044 55.7172 87.413 55.8004 87.5382 55.9251C87.6634 56.0499 87.7468 56.2578 87.7886 56.5073H86.203Z" fill="#FEC35A"/>
<path d="M89.1655 58.5863H89.5828C89.5411 58.7942 89.4159 59.0021 89.2073 59.21L89.5411 59.501C89.7497 59.2931 89.8749 59.1268 89.9583 58.9189C90.0418 58.711 90.0835 58.5031 90.0835 58.2952V57.6715H89.1655V58.5863Z" fill="#FEC35A"/>
<path d="M93.4215 53.9709C93.2129 54.1788 93.1294 54.5114 93.1294 54.8856V55.2183H92.5035V55.842H93.1294V58.5863H93.9639V55.842H94.715V55.2183H93.9639V54.9272C93.9639 54.553 94.1308 54.3451 94.5063 54.3451C94.5898 54.3451 94.715 54.3451 94.8401 54.3867V53.7214C94.715 53.6798 94.5063 53.6382 94.2977 53.6382C93.9222 53.6382 93.6301 53.763 93.4215 53.9709Z" fill="#FEC35A"/>
<path d="M97.7607 55.7172C97.6773 55.5509 97.5104 55.3846 97.3017 55.3014C97.0931 55.1767 96.8845 55.1351 96.6341 55.1351C96.3421 55.1351 96.0917 55.2183 95.8414 55.343C95.591 55.4678 95.4241 55.7173 95.299 55.9667C95.1738 56.2162 95.0903 56.5489 95.0903 56.8815C95.0903 57.2141 95.1321 57.5468 95.2572 57.7962C95.3824 58.0457 95.5493 58.2536 95.7997 58.4199C96.0083 58.5447 96.3003 58.6278 96.5924 58.6278C96.8428 58.6278 97.0514 58.5863 97.26 58.4615C97.4686 58.3368 97.5938 58.2121 97.719 58.0457V58.5863H98.5535V55.2183H97.719V55.7172H97.7607ZM97.5521 57.6715C97.3852 57.8794 97.1766 57.9626 96.9262 57.9626C96.6341 57.9626 96.4255 57.8794 96.2586 57.6715C96.0917 57.5052 96.0083 57.2141 96.0083 56.8815C96.0083 56.5489 96.0917 56.2578 96.2586 56.0499C96.4255 55.842 96.6341 55.7588 96.8845 55.7588C97.1766 55.7588 97.3852 55.842 97.5521 56.0499C97.719 56.2578 97.7607 56.5073 97.7607 56.8815C97.7607 57.2141 97.719 57.5052 97.5521 57.6715Z" fill="#FEC35A"/>
<path d="M102.309 55.8004V55.2183H99.4714V55.842H101.307L99.4297 58.0042V58.5863H102.392V57.9626H100.431L102.309 55.8004Z" fill="#FEC35A"/>
<path d="M107.733 55.343C107.524 55.2183 107.232 55.1351 106.94 55.1351C106.69 55.1351 106.481 55.1767 106.273 55.3015C106.064 55.4262 105.939 55.5509 105.814 55.7173V53.6798H104.979V58.5863H105.814V58.0457C105.897 58.2536 106.064 58.3784 106.231 58.5031C106.398 58.6279 106.648 58.6694 106.898 58.6694C107.191 58.6694 107.441 58.5863 107.65 58.4615C107.858 58.2952 108.067 58.0873 108.192 57.8378C108.317 57.5884 108.401 57.2557 108.401 56.9231C108.401 56.5904 108.359 56.2578 108.234 56.0083C108.15 55.6757 107.983 55.5094 107.733 55.343ZM107.399 57.6715C107.232 57.8794 107.024 57.9626 106.773 57.9626C106.481 57.9626 106.273 57.8794 106.106 57.6715C105.939 57.4636 105.897 57.2141 105.897 56.8399C105.897 56.5073 105.981 56.2162 106.106 56.0083C106.273 55.8004 106.481 55.7173 106.773 55.7173C107.065 55.7173 107.274 55.8004 107.441 56.0083C107.608 56.2162 107.65 56.4657 107.65 56.7983C107.608 57.2141 107.524 57.5052 107.399 57.6715Z" fill="#FEC35A"/>
<path d="M110.695 55.1351C110.362 55.1351 110.111 55.2183 109.861 55.343C109.611 55.5094 109.402 55.7173 109.277 55.9667C109.152 56.2162 109.068 56.5489 109.068 56.8815C109.068 57.422 109.235 57.8378 109.527 58.1705C109.819 58.5031 110.278 58.6278 110.821 58.6278C111.071 58.6278 111.28 58.5863 111.53 58.5031C111.78 58.4199 111.947 58.3368 112.114 58.212L111.864 57.6299C111.53 57.8794 111.196 58.0041 110.821 58.0041C110.487 58.0041 110.278 57.921 110.111 57.7547C109.944 57.5883 109.861 57.3389 109.861 56.9646H112.197V56.8399C112.197 56.2994 112.072 55.9251 111.78 55.5925C111.53 55.2599 111.154 55.1351 110.695 55.1351ZM109.903 56.5073C109.944 56.2578 110.028 56.0499 110.153 55.9251C110.278 55.8004 110.487 55.7172 110.695 55.7172C110.904 55.7172 111.113 55.8004 111.238 55.9251C111.363 56.0499 111.446 56.2578 111.488 56.5073H109.903Z" fill="#FEC35A"/>
<path d="M116.954 55.1351C116.704 55.1351 116.495 55.1767 116.287 55.3014C116.078 55.4262 115.953 55.5509 115.828 55.7588C115.661 55.343 115.327 55.1351 114.826 55.1351C114.576 55.1351 114.367 55.1767 114.2 55.3014C114.033 55.4262 113.867 55.5509 113.783 55.7588L113.741 55.2183H112.949C112.99 55.5094 112.99 55.8004 112.99 56.1746V58.5863H113.825V56.7152C113.825 56.4241 113.908 56.2162 114.033 56.0499C114.159 55.8836 114.367 55.8004 114.576 55.8004C114.784 55.8004 114.91 55.842 114.993 55.9667C115.077 56.0915 115.118 56.2578 115.118 56.5489V58.5863H115.953V56.7152C115.953 56.4241 116.036 56.2162 116.161 56.0499C116.287 55.8836 116.453 55.8004 116.704 55.8004C116.912 55.8004 117.038 55.842 117.121 55.9667C117.205 56.0915 117.246 56.2578 117.246 56.5489V58.5863H118.081V56.5073C118.081 56.0499 117.997 55.6757 117.789 55.4678C117.622 55.2599 117.33 55.1351 116.954 55.1351Z" fill="#FEC35A"/>
<path d="M119.875 57.6299H118.957V58.5447H119.875V57.6299Z" fill="#FEC35A"/>
</svg>
