<svg width="172" height="172" viewBox="0 0 172 172" fill="none" xmlns="http://www.w3.org/2000/svg">
<rect width="172" height="172" fill="white"/>
<path d="M102.288 64.4026L99.899 61.9762V81.4305L96.7718 84.5502L94.7738 82.5571V39.0989L92.1677 41.6986V81.8205L89.4313 84.5502L87.0859 82.2105V46.6813L84.4798 49.281V82.1238L82.2213 84.3769L79.6152 81.7772V54.0471L77.0526 56.6468V81.7772L74.4899 84.3335L71.8839 81.7338V61.7162L69.2778 64.3159L69.2344 82.6871L73.0132 86.4566L69.2344 90.2262L72.796 93.7791L69.2344 97.332L78.3556 106.431L81.9606 102.835L85.8263 106.691L89.6485 102.878L93.2101 106.431L102.244 97.4187L98.4223 93.6058L102.201 89.8362L98.7263 86.37L102.375 82.7304V64.4026H102.288ZM93.4707 84.5069L95.3819 86.4133L93.4707 88.3197L91.5596 86.4133L93.4707 84.5069ZM95.2081 94.0391L93.297 95.9455L91.3859 94.0391L93.297 92.1326L95.2081 94.0391ZM89.4748 88.1898L91.3859 90.0962L89.4748 92.0026L87.5637 90.0962L89.4748 88.1898ZM87.6071 94.0391L85.696 95.9455L83.7849 94.0391L85.696 92.1326L87.6071 94.0391ZM85.7394 84.4635L87.6505 86.37L85.7394 88.2764L83.8283 86.37L85.7394 84.4635ZM83.8718 90.1395L81.9606 92.046L80.0495 90.1395L81.9606 88.2331L83.8718 90.1395ZM80.2233 94.0391L78.3122 95.9455L76.401 94.0391L78.3122 92.1326L80.2233 94.0391ZM78.2687 84.6368L80.1798 86.5433L78.2687 88.4497L76.3576 86.5433L78.2687 84.6368ZM72.5354 90.1395L74.4465 88.2331L76.3576 90.1395L74.4465 92.046L72.5354 90.1395ZM72.6223 97.3753L74.5334 95.4689L76.4445 97.3753L74.5334 99.2818L72.6223 97.3753ZM78.2253 103.225L76.3142 101.318L78.2253 99.4118L80.1364 101.318L78.2253 103.225ZM80.0495 97.3753L81.9606 95.4689L83.8718 97.3753L81.9606 99.2818L80.0495 97.3753ZM85.6091 103.268L83.698 101.362L85.6091 99.4551L87.5202 101.362L85.6091 103.268ZM89.4748 99.2818L87.5637 97.3753L89.4748 95.4689L91.3859 97.3753L89.4748 99.2818ZM93.3839 103.225L91.4728 101.318L93.3839 99.4118L95.295 101.318L93.3839 103.225ZM98.6829 97.3753L96.7718 99.2818L94.8606 97.3753L96.7718 95.4689L98.6829 97.3753ZM98.6829 90.1395L96.7718 92.046L94.8606 90.1395L96.7718 88.2331L98.6829 90.1395Z" fill="#00AB67"/>
<path d="M10.2505 123.632V123.329H11.2929L14.2899 115.053H14.7242L17.5909 123.329H18.5899V123.632H14.5939V123.329H15.897L15.1151 121.119H12.3788L11.597 123.329H12.9V123.632H10.2505ZM12.5959 120.816H15.0717L13.899 117.306L12.5959 120.816Z" fill="#040707"/>
<path d="M25.7567 117.61C25.496 116.483 24.7577 115.357 23.3678 115.357C21.0223 115.357 21.1526 117.523 21.1526 119.343C21.1526 120.989 20.892 123.502 23.2375 123.502C24.9748 123.502 24.8011 122.202 24.8011 120.903H23.5415V120.599H27.494V120.903H26.6253C26.5819 122.766 25.2354 123.849 23.4112 123.849C21.9779 123.849 21.1526 123.372 20.2405 122.289C19.589 121.509 19.3284 120.469 19.3284 119.473C19.3284 118.303 19.7627 117.306 20.5011 116.396C21.2395 115.53 22.1082 115.053 23.2809 115.053C24.1496 115.053 24.7142 115.27 25.4092 115.703L25.9304 115.183H26.191V117.61H25.7567Z" fill="#040707"/>
<path d="M27.7545 123.632V123.329H28.7535L31.7505 115.053H32.1848L35.0515 123.329H36.0505V123.632H32.0545V123.329H33.3575L32.5757 121.119H29.8394L29.0575 123.329H30.3606V123.632H27.7545ZM30.0565 120.816H32.5323L31.3596 117.306L30.0565 120.816Z" fill="#040707"/>
<path d="M42.4354 123.329H43.695V123.632H39.5687V123.329H40.8283V115.573H39.5687V115.27H43.695V115.573H42.4354V123.329ZM44.4768 123.632V123.329H45.7798L42.5657 119.299L46.0839 115.573H44.6505V115.27H47.8212V115.573H46.6051L43.8253 118.433L47.8647 123.329H48.4293V123.632H44.4768Z" fill="#040707"/>
<path d="M51.5999 119.473V123.329H52.8595V123.632H48.7333V123.329H49.9929V115.573H48.7333V115.27H52.8595V115.573H51.5999V119.169H54.9444V115.573H53.6848V115.27H57.8111V115.573H56.5515V123.329H57.8111V123.632H53.6848V123.329H54.9444V119.473H51.5999Z" fill="#040707"/>
<path d="M58.202 123.632V123.329H59.201L62.198 115.053H62.6323L65.499 123.329H66.498V123.632H62.5455V123.329H63.8485L63.0667 121.119H60.3737L59.5919 123.329H60.895V123.632H58.202ZM60.504 120.816H62.9798L61.8071 117.306L60.504 120.816Z" fill="#040707"/>
<path d="M74.1858 123.805H73.7949L68.4525 115.833V123.329H69.6687V123.632H66.802V123.329H68.0182V115.573H66.802V115.27H70.0161L73.7515 120.772V115.573H72.5353V115.27H75.402V115.573H74.1424V123.805H74.1858Z" fill="#040707"/>
<path d="M80.3969 115.573H79.1373V115.27H86.1302L86.2171 117.826H85.8696C85.6959 117.003 85.5222 116.136 84.6535 115.746C84.3929 115.616 83.8716 115.573 83.3504 115.573H81.9605V119.169C83.1767 119.169 83.8282 118.996 83.8717 117.653H84.2191V121.162H83.8717C83.7413 119.776 83.307 119.473 81.9605 119.516V123.372H83.2201V123.675H79.0939V123.372H80.3535V115.573H80.3969Z" fill="#040707"/>
<path d="M87.1293 119.256C87.1293 117.176 88.9535 115.097 91.0818 115.097C93.1666 115.097 94.9909 117.176 94.9909 119.256C94.9909 121.553 93.5575 123.849 91.0818 123.849C88.606 123.849 87.1293 121.553 87.1293 119.256ZM93.1232 117.913C93.1232 117.48 93.0798 117.046 92.9495 116.656C92.6889 115.877 92.1677 115.4 91.0818 115.4C89.9525 115.4 89.4313 115.92 89.1707 116.656C89.0404 117.046 88.9969 117.48 88.9969 117.913V120.643C88.9969 121.119 89.0404 121.596 89.1272 122.029C89.3444 122.896 89.8656 123.502 91.0818 123.502C92.298 123.502 92.7757 122.896 93.0363 122.029C93.1666 121.596 93.1666 121.119 93.1666 120.643V117.913H93.1232Z" fill="#040707"/>
<path d="M104.503 115.27V115.573H103.243V120.859C103.243 122.116 102.983 122.722 102.505 123.199C101.984 123.675 101.202 123.849 100.073 123.849C99.1606 123.849 98.3788 123.589 97.8576 123.199C97.3364 122.809 97.0758 121.986 97.0758 120.556V115.573H95.8162V115.27H99.9424V115.573H98.6828V120.166C98.6828 121.899 98.5091 123.415 100.768 123.415C102.244 123.415 102.853 122.506 102.853 121.119V115.573H101.636V115.27H104.503Z" fill="#040707"/>
<path d="M112.321 123.805H111.93L106.588 115.833V123.329H107.804V123.632H104.937V123.329H106.154V115.573H104.937V115.27H108.152L111.887 120.772V115.573H110.671V115.27H113.537V115.573H112.278V123.805H112.321Z" fill="#040707"/>
<path d="M114.146 115.27H117.62C119.01 115.27 119.705 115.443 120.357 115.833C121.66 116.656 122.311 117.956 122.311 119.473C122.311 120.946 121.616 122.419 120.313 123.156C119.358 123.675 118.272 123.675 117.229 123.675H114.189V123.372H115.405V115.616H114.189V115.27H114.146ZM116.969 123.329C118.576 123.329 119.662 123.415 120.226 121.769C120.487 120.946 120.53 119.906 120.53 119.126C120.53 117.523 120.226 116.483 119.835 116.136C119.314 115.616 118.446 115.573 116.969 115.573V123.329Z" fill="#040707"/>
<path d="M122.919 123.632V123.329H123.918L126.915 115.053H127.35L130.216 123.329H131.215V123.632H127.263V123.329H128.566L127.784 121.119H125.091L124.309 123.329H125.612V123.632H122.919ZM125.221 120.816H127.697L126.524 117.306L125.221 120.816Z" fill="#040707"/>
<path d="M132.692 123.632V123.329H133.995V115.573C132.214 115.486 131.693 116.353 131.432 117.956H131.041L131.172 115.27H138.382L138.512 117.956H138.121C137.904 116.353 137.339 115.486 135.559 115.573V123.329H136.862V123.632H132.692Z" fill="#040707"/>
<path d="M142.247 123.329H143.507V123.632H139.381V123.329H140.64V115.573H139.381V115.27H143.507V115.573H142.247V123.329Z" fill="#040707"/>
<path d="M144.506 119.256C144.506 117.176 146.33 115.097 148.458 115.097C150.543 115.097 152.368 117.176 152.368 119.256C152.368 121.553 150.934 123.849 148.458 123.849C145.983 123.849 144.506 121.553 144.506 119.256ZM150.5 117.913C150.5 117.48 150.456 117.046 150.326 116.656C150.066 115.877 149.544 115.4 148.458 115.4C147.329 115.4 146.808 115.92 146.547 116.656C146.417 117.046 146.374 117.48 146.374 117.913V120.643C146.374 121.119 146.417 121.596 146.504 122.029C146.721 122.896 147.242 123.502 148.458 123.502C149.675 123.502 150.152 122.896 150.413 122.029C150.543 121.596 150.543 121.119 150.543 120.643V117.913H150.5Z" fill="#040707"/>
<path d="M160.577 123.805H160.186L154.843 115.833V123.329H156.06V123.632H153.193V123.329H154.409V115.573H153.193V115.27H156.407L160.142 120.772V115.573H158.97V115.27H161.836V115.573H160.577V123.805Z" fill="#040707"/>
</svg>
