<svg width="172" height="172" viewBox="0 0 172 172" fill="none" xmlns="http://www.w3.org/2000/svg">
<rect width="172" height="172" fill="white"/>
<path d="M128.2 58H44V113.767H128.2V58Z" fill="#004397"/>
<path d="M86.6759 66.2211H89.137L87.1996 67.6873L87.9327 70.0436L85.9952 68.5775L84.0054 70.0436L84.7909 67.6873L82.8011 66.2211H85.2621L85.9952 63.9695L86.6759 66.2211ZM86.0476 101.671L85.3145 103.975H82.8534L84.8432 105.441L84.0578 107.797L85.9952 106.384L87.985 107.797L87.2519 105.441L89.2418 103.975H86.7807L86.0476 101.671ZM96.1537 101.462H98.6147L96.6249 102.928L97.4104 105.284L95.4206 103.87L93.4832 105.284L94.2686 102.928L92.2788 101.462H94.6875L95.4206 99.2099L96.1537 101.462ZM95.4206 66.4306L94.6875 68.6822H92.2788L94.2686 70.1483L93.4832 72.5047L95.4206 71.0909L97.4104 72.5047L96.6249 70.1483L98.6147 68.6822H96.1537L95.4206 66.4306ZM103.066 75.6465H105.527L103.537 77.1126L104.27 79.469L102.333 78.0028L100.395 79.469L101.181 77.1126L99.1908 75.6465H101.652L102.385 73.3949L103.066 75.6465ZM102.333 92.3503L101.599 94.602H99.1384L101.128 96.0681L100.343 98.4245L102.28 97.0107L104.218 98.4245L103.485 96.0681L105.474 94.602H103.013L102.333 92.3503ZM105.684 84.9671H108.145L106.155 86.4333L106.888 88.7897L104.898 87.3758L102.961 88.7897L103.746 86.4333L101.757 84.9671H104.218L104.951 82.7155L105.684 84.9671ZM76.4128 66.4829L75.6797 68.7869H73.271L75.2608 70.2531L74.4753 72.6094L76.4128 71.1432L78.4026 72.6094L77.6695 70.2531L79.6069 68.7869H77.1458L76.4128 66.4829ZM70.4434 75.6989H72.9044L70.9146 77.165L71.6477 79.5214L69.7103 78.0552L67.7728 79.5214L68.5583 77.165L66.5685 75.6989H68.9772L69.7103 73.4472L70.4434 75.6989ZM67.1968 82.7155L66.4637 85.0195H64.0027L65.9925 86.4857L65.207 88.842L67.1968 87.3758L69.1343 88.842L68.4012 86.4857L70.3386 85.0195H67.8776L67.1968 82.7155ZM70.4434 94.6543H72.9044L70.9146 96.1205L71.6477 98.4768L69.7103 97.0107L67.7728 98.4768L68.5583 96.1205L66.5685 94.6543H68.9772L69.7103 92.4027L70.4434 94.6543ZM76.5699 99.2099L75.8368 101.514H73.4281L75.4179 102.98L74.6324 105.336L76.5699 103.923L78.5073 105.336L77.7742 102.98L79.764 101.514H77.2506L76.5699 99.2099Z" fill="#FCEE00"/>
</svg>
