<svg width="172" height="172" viewBox="0 0 172 172" fill="none" xmlns="http://www.w3.org/2000/svg">
<rect width="172" height="172" fill="white"/>
<g clip-path="url(#clip0)">
<path d="M69.6234 74.3027V80.9767H76.1641V74.3027H80.1208V91.7516H76.1641V84.5147H69.6234V91.7516H65.6667V74.3027H69.6234Z" fill="#859DAA"/>
<path d="M96.3513 91.1888C95.6246 91.5104 94.0096 91.9125 91.8294 91.9125C85.7733 91.9125 82.7048 88.1333 82.7048 83.2283C82.7048 77.278 86.9845 73.9812 92.2332 73.9812C94.2519 73.9812 95.8669 74.3832 96.5128 74.7853L95.7054 77.9213C94.8979 77.5996 93.7674 77.278 92.3947 77.278C89.3262 77.278 86.9038 79.2078 86.9038 83.0675C86.9038 86.5251 89.0032 88.7765 92.4754 88.7765C93.6866 88.7765 94.9786 88.5353 95.7861 88.2137L96.3513 91.1888Z" fill="#859DAA"/>
<path d="M105.799 91.7515L105.556 90.4649H105.476C104.668 91.5103 103.376 91.9927 101.842 91.9927C99.2581 91.9927 97.7239 90.1433 97.7239 88.1331C97.7239 84.8363 100.712 83.3085 105.153 83.3085V83.1477C105.153 82.5044 104.83 81.5395 102.811 81.5395C101.519 81.5395 100.146 81.9415 99.3389 82.5044L98.6121 80.0117C99.5003 79.5293 101.196 78.886 103.538 78.886C107.737 78.886 109.109 81.3787 109.109 84.3538V88.7763C109.109 89.9825 109.19 91.1886 109.271 91.8319H105.799V91.7515ZM105.314 85.7208C103.215 85.7208 101.6 86.2032 101.6 87.731C101.6 88.7763 102.246 89.2588 103.134 89.2588C104.103 89.2588 104.911 88.6155 105.153 87.8114C105.234 87.5702 105.234 87.4094 105.234 87.1682V85.7208H105.314Z" fill="#859DAA"/>
<path d="M112.259 83.3086C112.259 81.62 112.178 80.253 112.178 79.0469H115.569L115.731 80.8159H115.812C116.781 79.4489 118.234 78.8057 120.011 78.8057C122.756 78.8057 125.259 81.2179 125.259 85.2384C125.259 89.8217 122.352 91.9928 119.526 91.9928C117.992 91.9928 116.781 91.3495 116.215 90.5454H116.135V96.8174H112.178V83.3086H112.259ZM116.215 86.2837C116.215 86.6054 116.215 86.8466 116.296 87.0878C116.538 88.1332 117.427 88.9372 118.638 88.9372C120.334 88.9372 121.383 87.4899 121.383 85.3992C121.383 83.389 120.495 81.8612 118.719 81.8612C117.588 81.8612 116.619 82.6653 116.377 83.8715C116.296 84.1127 116.296 84.3539 116.296 84.5951V86.2837H116.215Z" fill="#859DAA"/>
<path d="M131.8 75.5893C131.8 76.6347 130.992 77.5192 129.7 77.5192C128.489 77.5192 127.601 76.6347 127.682 75.5893C127.682 74.4636 128.489 73.5791 129.781 73.5791C130.992 73.5791 131.8 74.4636 131.8 75.5893ZM127.762 91.7516V79.1273H131.719V91.7516H127.762Z" fill="#859DAA"/>
<path d="M139.229 75.5088V79.1272H142.055V82.0219H139.229V86.6053C139.229 88.1331 139.552 88.8567 140.763 88.8567C141.247 88.8567 141.651 88.7763 141.893 88.7763V91.7515C141.409 91.9927 140.44 92.0731 139.309 92.0731C138.017 92.0731 136.968 91.6711 136.322 91.0278C135.595 90.3041 135.272 89.098 135.272 87.2486V82.1024H133.738V79.2076H135.434V76.4737L139.229 75.5088Z" fill="#859DAA"/>
<path d="M151.583 91.7515L151.341 90.4649H151.26C150.453 91.5103 149.161 91.9927 147.627 91.9927C145.043 91.9927 143.509 90.1433 143.509 88.1331C143.509 84.8363 146.496 83.3085 150.937 83.3085V83.1477C150.937 82.5044 150.614 81.5395 148.596 81.5395C147.304 81.5395 145.931 81.9415 145.124 82.5044L144.397 80.0117C145.285 79.5293 146.981 78.886 149.322 78.886C153.521 78.886 154.894 81.3787 154.894 84.3538V88.7763C154.894 89.9825 154.975 91.1886 155.056 91.8319H151.583V91.7515ZM151.099 85.7208C148.999 85.7208 147.384 86.2032 147.384 87.731C147.384 88.7763 148.03 89.2588 148.919 89.2588C149.888 89.2588 150.695 88.6155 150.937 87.8114C151.018 87.5702 151.018 87.4094 151.018 87.1682V85.7208H151.099Z" fill="#859DAA"/>
<path d="M158.043 73.4182H162V91.7515H158.043V73.4182Z" fill="#859DAA"/>
<path d="M66.9588 109.844V107.914L65.5054 105.26H66.4744L67.0396 106.466C67.2011 106.788 67.2818 107.029 67.4433 107.351C67.5241 107.029 67.6856 106.788 67.8471 106.466L68.4123 105.26H69.3813L67.8471 107.914V109.844H66.9588Z" fill="#859DAA"/>
<path d="M75.1952 107.512C75.1952 109.04 74.2262 109.924 73.015 109.924C71.723 109.924 70.9155 108.959 70.9155 107.592C70.9155 106.145 71.8038 105.18 73.0957 105.18C74.3877 105.18 75.1952 106.225 75.1952 107.512ZM71.723 107.592C71.723 108.557 72.2075 109.281 73.015 109.281C73.8225 109.281 74.307 108.557 74.307 107.592C74.307 106.708 73.9032 105.904 73.015 105.904C72.2075 105.823 71.723 106.627 71.723 107.592Z" fill="#859DAA"/>
<path d="M78.2637 105.26V107.914C78.2637 108.798 78.6675 109.2 79.2327 109.2C79.8787 109.2 80.2017 108.798 80.2017 107.914V105.26H81.0092V107.914C81.0092 109.361 80.2824 109.924 79.152 109.924C78.1022 109.924 77.3755 109.361 77.3755 107.914V105.26H78.2637Z" fill="#859DAA"/>
<path d="M83.5122 105.341C83.8352 105.26 84.3197 105.26 84.8042 105.26C85.4502 105.26 85.9347 105.341 86.2577 105.662C86.4999 105.904 86.6614 106.225 86.6614 106.547C86.6614 107.11 86.2577 107.512 85.8539 107.673C86.1769 107.833 86.4192 108.155 86.4999 108.557C86.6614 109.12 86.7422 109.683 86.9036 109.844H86.0154C85.9347 109.683 85.8539 109.361 85.6924 108.718C85.5309 108.155 85.3694 107.914 84.8849 107.914H84.4812V109.844H83.6737V105.341H83.5122ZM84.3197 107.351H84.8042C85.3694 107.351 85.6924 107.029 85.6924 106.627C85.6924 106.145 85.3694 105.904 84.8042 105.904C84.5619 105.904 84.4004 105.904 84.3197 105.984V107.351Z" fill="#859DAA"/>
<path d="M94.4135 107.834H92.637V109.2H94.575V109.924H91.7488V105.341H94.4135V106.065H92.5563V107.271H94.3327V107.834H94.4135Z" fill="#859DAA"/>
<path d="M100.793 110.567C100.147 110.407 99.5813 110.165 99.016 110.004C98.9353 110.004 98.8545 109.924 98.693 109.924C97.6433 109.844 96.6743 109.12 96.6743 107.592C96.6743 106.145 97.5626 105.18 98.8545 105.18C100.227 105.18 100.954 106.225 100.954 107.512C100.954 108.638 100.47 109.361 99.7428 109.602C100.147 109.683 100.55 109.844 100.954 109.844L100.793 110.567ZM100.147 107.512C100.147 106.627 99.7428 105.823 98.8545 105.823C98.047 105.823 97.5626 106.627 97.5626 107.512C97.5626 108.396 98.047 109.2 98.8545 109.2C99.662 109.281 100.147 108.477 100.147 107.512Z" fill="#859DAA"/>
<path d="M104.103 105.26V107.914C104.103 108.798 104.507 109.2 105.072 109.2C105.718 109.2 106.041 108.798 106.041 107.914V105.26H106.849V107.914C106.849 109.361 106.122 109.924 104.992 109.924C103.942 109.924 103.215 109.361 103.215 107.914V105.26H104.103Z" fill="#859DAA"/>
<path d="M110.159 105.26V109.844H109.352V105.26H110.159Z" fill="#859DAA"/>
<path d="M113.551 105.984H112.259V105.26H115.731V105.984H114.358V109.924H113.551V105.984Z" fill="#859DAA"/>
<path d="M118.88 109.844V107.914L117.427 105.26H118.396L118.961 106.466C119.122 106.788 119.203 107.029 119.365 107.351C119.445 107.029 119.607 106.788 119.768 106.466L120.334 105.26H121.303L119.768 107.914V109.844H118.88Z" fill="#859DAA"/>
<path d="M126.228 105.341C126.551 105.26 126.955 105.26 127.52 105.26C128.166 105.26 128.57 105.421 128.893 105.662C129.135 105.904 129.377 106.225 129.377 106.708C129.377 107.11 129.216 107.512 128.974 107.753C128.651 108.075 128.085 108.235 127.52 108.235C127.359 108.235 127.197 108.235 127.117 108.235V110.004H126.309V105.341H126.228ZM127.117 107.431C127.197 107.431 127.359 107.431 127.52 107.431C128.166 107.431 128.57 107.11 128.57 106.547C128.57 106.064 128.247 105.743 127.601 105.743C127.359 105.743 127.197 105.743 127.117 105.823V107.431Z" fill="#859DAA"/>
<path d="M132.042 108.557L131.638 109.844H130.75L132.204 105.26H133.253L134.788 109.844H133.899L133.496 108.557H132.042ZM133.334 107.914L133.011 106.788C132.93 106.547 132.85 106.225 132.769 105.904C132.688 106.145 132.607 106.466 132.527 106.788L132.204 107.914H133.334Z" fill="#859DAA"/>
<path d="M136.968 105.341C137.291 105.26 137.776 105.26 138.26 105.26C138.906 105.26 139.39 105.341 139.713 105.662C139.956 105.904 140.117 106.225 140.117 106.547C140.117 107.11 139.713 107.512 139.31 107.673C139.633 107.833 139.875 108.155 139.956 108.557C140.117 109.12 140.198 109.683 140.359 109.844H139.39C139.31 109.683 139.229 109.361 139.067 108.718C138.906 108.155 138.744 107.914 138.26 107.914H137.776V109.844H136.968V105.341ZM137.776 107.351H138.26C138.825 107.351 139.148 107.029 139.148 106.627C139.148 106.145 138.825 105.904 138.26 105.904C138.018 105.904 137.856 105.904 137.776 105.984V107.351Z" fill="#859DAA"/>
<path d="M143.266 105.984H141.974V105.26H145.447V105.984H144.155V109.924H143.347V105.984H143.266Z" fill="#859DAA"/>
<path d="M147.546 109.844V105.26H148.515L149.726 107.27C150.049 107.753 150.291 108.316 150.534 108.798C150.453 108.155 150.453 107.592 150.453 106.868V105.26H151.26V109.844H150.372L149.08 107.833C148.757 107.351 148.515 106.788 148.273 106.225C148.273 106.788 148.353 107.431 148.353 108.155V109.763H147.546V109.844Z" fill="#859DAA"/>
<path d="M156.267 107.834H154.49V109.2H156.428V109.924H153.602V105.341H156.267V106.065H154.41V107.271H156.186V107.834H156.267Z" fill="#859DAA"/>
<path d="M158.689 105.341C159.012 105.26 159.497 105.26 159.981 105.26C160.627 105.26 161.112 105.341 161.435 105.662C161.677 105.904 161.839 106.225 161.839 106.547C161.839 107.11 161.435 107.512 161.031 107.673C161.354 107.833 161.596 108.155 161.677 108.557C161.839 109.12 161.919 109.683 162.081 109.844H161.193C161.112 109.683 161.031 109.361 160.87 108.718C160.708 108.155 160.547 107.914 160.062 107.914H159.578V109.844H158.77V105.341H158.689ZM159.578 107.351H160.062C160.627 107.351 160.95 107.029 160.95 106.627C160.95 106.145 160.627 105.904 160.062 105.904C159.82 105.904 159.658 105.904 159.578 105.984V107.351Z" fill="#859DAA"/>
<path d="M50.8899 68.7543V98.8274C50.8899 100.355 49.598 101.642 48.0637 101.642H17.783C16.2488 101.642 14.9568 100.355 14.9568 98.8274V92.6358C14.9568 91.1081 16.2488 89.8215 17.783 89.8215H24.0814C25.6156 89.8215 26.9076 88.6154 26.9076 87.0072V80.7353C26.9076 79.2075 28.1996 77.9209 29.7338 77.9209H36.1129C37.6472 77.9209 38.9391 76.7148 38.9391 75.1066V68.7543C38.9391 67.2265 40.2311 65.9399 41.7653 65.9399H47.983C49.598 65.9399 50.8899 67.2265 50.8899 68.7543Z" fill="#005E86"/>
<path d="M34.9016 64.8143V71.0058C34.9016 72.5336 33.6096 73.8202 32.0754 73.8202H25.6963C24.162 73.8202 22.8701 75.0263 22.8701 76.6345V82.9868C22.8701 84.5146 21.5781 85.8012 20.0438 85.8012H13.8262C12.292 85.8012 11 84.5146 11 82.9868V64.6535C11.0807 63.2061 12.3727 62 13.907 62H32.0754C33.6096 62 34.9016 63.2865 34.9016 64.8143Z" fill="#7BB3CD"/>
</g>
<defs>
<clipPath id="clip0">
<rect width="151" height="48.5673" fill="white" transform="translate(11 62)"/>
</clipPath>
</defs>
</svg>
