<svg width="172" height="172" viewBox="0 0 172 172" fill="none" xmlns="http://www.w3.org/2000/svg">
<rect width="172" height="172" fill="white"/>
<g clip-path="url(#clip0)">
<path d="M77.1505 52H10V119.15H77.1505V52Z" fill="#812926"/>
<path d="M18.7253 89.5212H22.8987V96.8054H29.1202V89.5212H33.2936V107.504H29.1202V100.369H22.8987V107.504H18.7253V89.5212Z" fill="white"/>
<path d="M36.9744 101.434V89.5212H41.11V101.168C41.0675 101.593 41.1178 102.021 41.2574 102.424C41.3971 102.827 41.6227 103.194 41.9187 103.501C42.2147 103.808 42.5739 104.047 42.9715 104.201C43.369 104.355 43.7953 104.421 44.2207 104.393C46.1177 104.393 47.3315 103.255 47.3315 101.168V89.5212H51.5049V101.434C51.5049 105.607 48.6594 107.997 44.2207 107.997C39.7821 107.997 36.9744 105.607 36.9744 101.434Z" fill="white"/>
<path d="M68.6525 102.532C68.6525 105.605 66.4525 107.502 62.886 107.502H55.2224V89.5212H62.6207C66.1873 89.5212 68.3873 91.3041 68.3873 94.1874C68.4505 95.1835 68.1268 96.1656 67.4836 96.9289C66.8404 97.6922 65.9274 98.1778 64.9349 98.2844C65.9874 98.3642 66.9665 98.854 67.6618 99.6482C68.357 100.442 68.7127 101.478 68.6525 102.532ZM59.358 92.5162V96.8809H61.6722C63.267 96.8809 64.2139 96.0466 64.2139 94.6809C64.2139 93.3152 63.3031 92.4809 61.6722 92.4809H59.358V92.5162ZM64.4783 101.963C64.4783 100.635 63.492 99.7625 61.9744 99.7625H59.395V104.353H61.9744C62.3019 104.388 62.6332 104.352 62.9452 104.246C63.2571 104.14 63.5422 103.967 63.7807 103.74C64.0191 103.513 64.2051 103.236 64.3257 102.93C64.4463 102.623 64.4987 102.294 64.4791 101.965L64.4783 101.963Z" fill="white"/>
<path d="M18.7253 78.4431H21.1151V86.4861H18.7253V78.4431Z" fill="white"/>
<path d="M23.5442 78.4431H26.5794L28.2867 83.6783L29.994 78.4431H32.9528V86.4861H30.6789V81.3658L29.1991 86.4491H27.4137L25.8584 81.3289V86.4491H23.582V78.4431H23.5442Z" fill="white"/>
<path d="M42.2473 81.4404C42.2593 81.8373 42.19 82.2324 42.0436 82.6015C41.8972 82.9706 41.6768 83.3058 41.3961 83.5866C41.1153 83.8673 40.7801 84.0877 40.411 84.2341C40.0419 84.3805 39.6468 84.4498 39.2499 84.4378H37.7701V86.4868H35.3804V78.443H39.2499C39.6468 78.431 40.0419 78.5004 40.411 78.6467C40.7801 78.7931 41.1153 79.0135 41.3961 79.2943C41.6768 79.575 41.8972 79.9102 42.0436 80.2793C42.19 80.6484 42.2593 81.0435 42.2473 81.4404ZM39.819 81.4404C39.827 81.2952 39.8055 81.1499 39.7558 81.0132C39.7062 80.8765 39.6294 80.7512 39.5302 80.6449C39.4309 80.5386 39.3112 80.4534 39.1783 80.3946C39.0453 80.3357 38.9018 80.3043 38.7564 80.3022H37.7701V82.5786H38.7564C39.0481 82.5683 39.3239 82.4427 39.5231 82.2293C39.7223 82.0159 39.8288 81.7322 39.819 81.4404Z" fill="white"/>
<path d="M48.0903 85.54H45.51L45.2448 86.4507H42.7787L45.51 78.4053H48.0894L50.8208 86.4482H48.3555L48.0903 85.54ZM47.6353 83.7949L46.801 80.6842L45.9683 83.7924H47.6379L47.6353 83.7949Z" fill="white"/>
<path d="M51.7701 82.4259C51.7558 81.8477 51.8623 81.2729 52.0828 80.7383C52.3034 80.2036 52.6331 79.7209 53.0508 79.321C53.4686 78.9211 53.9653 78.6127 54.5091 78.4157C55.0528 78.2187 55.6317 78.1374 56.2087 78.177C58.7126 78.177 60.3443 79.3907 60.534 81.5152H58.0302C57.9291 81.132 57.6931 80.7982 57.3655 80.5752C57.038 80.3522 56.6409 80.255 56.2473 80.3014C55.7075 80.3502 55.2053 80.5992 54.8397 80.9994C54.474 81.3996 54.2713 81.922 54.2713 82.4641C54.2713 83.0062 54.474 83.5287 54.8397 83.9288C55.2053 84.329 55.7075 84.578 56.2473 84.6268C56.6409 84.6732 57.038 84.576 57.3655 84.353C57.6931 84.13 57.9291 83.7962 58.0302 83.413H60.534C60.3443 85.5375 58.7134 86.7512 56.2087 86.7512C55.628 86.7791 55.0478 86.6872 54.5042 86.4812C53.9606 86.2752 53.4652 85.9595 53.0488 85.5538C52.6325 85.1481 52.3041 84.661 52.0841 84.1229C51.8641 83.5848 51.7572 83.0071 51.7701 82.4259Z" fill="white"/>
<path d="M63.9487 80.492H61.8998V78.4431H68.4251V80.492H66.3762V86.4517H63.9865V80.492H63.9487Z" fill="white"/>
</g>
<path d="M95.4035 102.217H91.0343V89.7535H86.0681V106.466H95.4035V102.217Z" fill="#414140"/>
<path d="M97.3748 94.6003V106.466H102.054V94.6003H97.3748ZM96.945 91.0189C96.945 91.4009 97.0166 91.7352 97.1599 92.0694C97.3031 92.4037 97.4941 92.6902 97.7329 92.929C97.9717 93.1677 98.282 93.3587 98.6163 93.502C98.9506 93.6452 99.3087 93.7169 99.6907 93.7169C100.073 93.7169 100.455 93.6452 100.789 93.502C101.123 93.3587 101.41 93.1677 101.649 92.929C101.887 92.6902 102.102 92.4037 102.245 92.0694C102.389 91.7352 102.46 91.4009 102.46 91.0189C102.46 90.6369 102.389 90.3026 102.245 89.9684C102.102 89.6341 101.887 89.3476 101.649 89.085C101.41 88.8462 101.123 88.6313 100.789 88.4881C100.455 88.3448 100.073 88.2732 99.6907 88.2732C99.3087 88.2732 98.9506 88.3448 98.6163 88.4881C98.282 88.6313 97.9717 88.8462 97.7329 89.085C97.4941 89.3476 97.3031 89.6341 97.1599 89.9684C97.0166 90.3026 96.945 90.6369 96.945 91.0189Z" fill="#414140"/>
<path d="M111.832 99.1844C110.877 98.9456 110.185 98.7308 109.707 98.5636C109.23 98.4204 109.015 98.1577 109.015 97.7996C109.015 97.5131 109.11 97.2982 109.349 97.155C109.564 97.0356 109.827 96.964 110.113 96.964C110.471 96.964 110.758 97.0833 110.996 97.2743C111.235 97.4892 111.355 97.7996 111.355 98.2294H116.01C116.01 97.6802 115.915 97.155 115.724 96.6774C115.533 96.1999 115.199 95.794 114.769 95.4359C114.339 95.0778 113.742 94.7913 113.026 94.5764C112.286 94.3854 111.378 94.266 110.328 94.266C108.346 94.266 106.866 94.5764 105.863 95.1494C104.86 95.7224 104.359 96.7013 104.359 98.0384C104.359 98.683 104.478 99.2083 104.717 99.5903C104.956 99.9962 105.29 100.33 105.72 100.593C106.126 100.856 106.603 101.071 107.129 101.214C107.654 101.357 108.227 101.5 108.8 101.644C109.301 101.787 109.731 101.93 110.065 102.026C110.4 102.121 110.686 102.217 110.901 102.312C111.116 102.408 111.283 102.527 111.378 102.646C111.474 102.766 111.522 102.909 111.522 103.076C111.522 103.363 111.402 103.578 111.187 103.721C110.973 103.864 110.686 103.936 110.328 103.936C109.85 103.936 109.468 103.84 109.206 103.601C108.919 103.363 108.8 103.005 108.8 102.503H104.12C104.12 103.864 104.598 104.915 105.601 105.679C106.579 106.443 108.131 106.801 110.232 106.801C111.044 106.801 111.808 106.753 112.524 106.61C113.241 106.49 113.885 106.275 114.435 105.965C114.96 105.679 115.39 105.273 115.7 104.747C116.01 104.246 116.177 103.601 116.177 102.814C116.177 102.193 116.058 101.691 115.843 101.285C115.604 100.903 115.318 100.569 114.936 100.307C114.554 100.044 114.076 99.829 113.551 99.6619C113.026 99.4948 112.453 99.3277 111.832 99.1844Z" fill="#414140"/>
<path d="M123.016 106.466V104.7C123.111 104.938 123.278 105.201 123.517 105.44C123.756 105.679 124.018 105.917 124.353 106.108C124.663 106.299 125.021 106.466 125.403 106.586C125.785 106.729 126.191 106.777 126.621 106.777C127.433 106.777 128.173 106.634 128.841 106.323C129.51 106.037 130.107 105.607 130.584 105.058C131.062 104.533 131.444 103.864 131.73 103.1C131.993 102.336 132.136 101.5 132.136 100.545C132.136 99.638 131.993 98.7785 131.73 98.0145C131.444 97.2505 131.062 96.5819 130.584 96.0328C130.107 95.5075 129.51 95.0778 128.841 94.7674C128.173 94.4809 127.433 94.3138 126.621 94.3138C126.191 94.3138 125.785 94.3854 125.403 94.5048C125.021 94.6241 124.663 94.7913 124.353 94.9823C124.018 95.1733 123.756 95.412 123.517 95.6508C123.278 95.8895 123.111 96.1283 123.016 96.3671V89.7535H118.336V106.466H123.016ZM125.236 102.885C124.568 102.885 124.018 102.67 123.613 102.193C123.207 101.739 123.016 101.19 123.016 100.545C123.016 99.9007 123.207 99.3515 123.613 98.8979C124.018 98.4443 124.568 98.2055 125.236 98.2055C125.905 98.2055 126.43 98.4443 126.836 98.8979C127.242 99.3515 127.457 99.9007 127.457 100.545C127.457 101.19 127.242 101.739 126.836 102.193C126.43 102.67 125.905 102.885 125.236 102.885Z" fill="#414140"/>
<path d="M140.42 106.801C141.519 106.801 142.497 106.634 143.357 106.299C144.217 105.965 144.933 105.535 145.53 104.962C146.103 104.389 146.556 103.745 146.867 102.981C147.177 102.217 147.344 101.405 147.344 100.545C147.344 99.6858 147.177 98.874 146.867 98.11C146.556 97.346 146.103 96.6774 145.53 96.1044C144.933 95.5314 144.217 95.1017 143.357 94.7674C142.497 94.4331 141.519 94.266 140.42 94.266C139.322 94.266 138.343 94.4331 137.484 94.7674C136.624 95.1017 135.884 95.5314 135.311 96.1044C134.714 96.6774 134.26 97.346 133.974 98.11C133.663 98.874 133.52 99.6858 133.52 100.545C133.52 101.405 133.663 102.217 133.974 102.981C134.26 103.745 134.714 104.389 135.311 104.962C135.884 105.535 136.624 105.965 137.484 106.299C138.343 106.634 139.322 106.801 140.42 106.801ZM140.42 102.885C139.752 102.885 139.203 102.67 138.797 102.217C138.391 101.763 138.2 101.214 138.2 100.545C138.2 99.8768 138.391 99.3277 138.797 98.874C139.203 98.4443 139.752 98.2055 140.42 98.2055C141.089 98.2055 141.638 98.4443 142.044 98.874C142.426 99.3277 142.641 99.8768 142.641 100.545C142.641 101.214 142.426 101.763 142.044 102.217C141.638 102.67 141.089 102.885 140.42 102.885Z" fill="#414140"/>
<path d="M149.346 94.6003V106.466H154.026V100.665C154.026 99.0411 154.623 98.2055 155.817 98.2055C156.414 98.2055 156.843 98.4204 157.082 98.8024C157.321 99.1844 157.44 99.7335 157.44 100.45V106.466H162.12V99.447C162.12 98.5636 162.048 97.7996 161.905 97.1311C161.762 96.4626 161.475 95.9134 161.046 95.4359C160.711 95.1017 160.282 94.8151 159.756 94.6241C159.231 94.4331 158.61 94.3138 157.942 94.3138C156.987 94.3138 156.175 94.5048 155.506 94.8629C154.838 95.2449 154.336 95.7224 154.026 96.3432V94.6003H149.346Z" fill="#414140"/>
<defs>
<clipPath id="clip0">
<rect width="67.1505" height="67.1505" fill="white" transform="translate(10 52)"/>
</clipPath>
</defs>
</svg>
