<svg width="172" height="172" viewBox="0 0 172 172" fill="none" xmlns="http://www.w3.org/2000/svg">
<rect width="172" height="172" fill="white"/>
<path d="M136.149 89.2153C136.149 82.3978 130.821 77.0448 123.777 77.0448C116.707 77.0448 111.404 82.3978 111.404 89.2153C111.404 96.26 116.707 101.739 123.777 101.739C130.821 101.714 136.149 96.2348 136.149 89.2153ZM131.604 89.2153C131.604 94.139 128.069 97.876 123.777 97.876C119.459 97.876 115.924 94.139 115.924 89.2153C115.924 84.4935 119.459 80.908 123.777 80.908C128.069 80.8828 131.604 84.4935 131.604 89.2153ZM110.571 84.0895C110.571 79.5698 106.96 77.0195 102.769 77.0195C97.0368 77.0195 94.8653 81.7918 94.8653 81.7918L97.8953 83.8875C97.8953 83.8875 99.6123 80.8828 102.39 80.8828C104.41 80.8828 106.026 82.019 106.026 84.2915C106.026 89.4425 94.5875 90.5788 94.5875 99.189C94.5875 99.8708 94.6885 100.527 94.8148 101.31H111.379V94.745H107.617V97.775H99.385C99.4608 92.8765 110.571 91.4878 110.571 84.0895Z" fill="#D50C19"/>
<path d="M161.5 77.1205C161.5 73.131 158.42 70 154.152 70C149.91 70 146.805 73.131 146.805 77.1205C146.805 81.211 149.885 84.4178 154.152 84.4178C158.42 84.4178 161.5 81.211 161.5 77.1205ZM157.889 77.1205C157.889 79.5445 156.223 81.3878 154.152 81.3878C152.107 81.3878 150.415 79.5445 150.415 77.1205C150.415 74.7723 152.107 73.03 154.152 73.03C156.198 73.03 157.889 74.7723 157.889 77.1205ZM136.301 84.1905H146.35V79.797H143.421V81.4635H139.911C140.012 79.292 146.022 78.383 146.022 74.2672C146.022 71.313 143.497 70 141.224 70C137.588 70 136.301 73.0047 136.301 73.0047L138.649 74.6208C138.649 74.6208 139.558 73.03 140.896 73.03C141.628 73.03 142.386 73.333 142.386 74.4693C142.386 76.8428 136.124 77.5245 136.124 82.6755C136.149 83.1553 136.2 83.635 136.301 84.1905Z" fill="#5DB430"/>
<path d="M95.1178 89.1395C95.1178 88.3315 95.042 87.5993 94.9157 86.867C93.9057 81.0848 89.2093 76.8428 82.8715 76.8428C75.7005 76.8428 70.297 82.2715 70.297 89.19C70.297 96.3357 75.7005 101.891 82.8715 101.891C85.144 101.891 87.1892 101.335 88.9315 100.351L86.76 96.866C85.5985 97.573 84.2855 97.977 82.8715 97.977C78.5033 97.977 74.9177 94.1895 74.9177 89.19C74.9177 84.4178 78.5033 80.7565 82.8715 80.7565C87.2398 80.7565 90.8252 84.4178 90.8252 89.19C90.8252 89.695 90.7242 90.604 90.7242 90.604C90.6232 91.3615 90.1435 91.9675 89.386 91.9675C88.6537 91.9675 88.0478 91.3615 88.0225 90.6293V88.079C88.0225 85.2258 86.3307 83.635 83.1492 83.635C80.397 83.635 78.5285 85.049 78.5285 85.049L79.6647 87.271C79.6647 87.271 81.306 86.4883 82.7957 86.4883C83.629 86.4883 84.336 86.8165 84.336 87.7003V88.0285H83.6795C81.9877 88.0285 77.872 88.5082 77.872 91.6897C77.872 93.8865 79.5385 95.048 81.4575 95.048C83.7805 95.048 84.6642 93.2553 84.6642 93.2553H84.7147C84.7147 93.2553 84.7147 93.2553 84.7147 93.2805C85.6742 95.4015 88.0982 95.6287 89.3607 95.6287C92.7695 95.6287 95.143 93.0785 95.1178 89.1395ZM84.437 90.3515C84.437 91.311 83.5027 92.5987 82.5685 92.5987C81.7605 92.5987 81.3817 92.1695 81.3817 91.4625C81.3817 90.503 82.8715 90.099 84.0835 90.099H84.4117V90.3515H84.437ZM69.8172 92.7503C69.8172 87.4225 66.8125 83.7612 62.1665 83.7612C58.5557 83.7612 57.0155 86.3115 57.0155 86.3115H56.9397C56.9397 86.3115 57.0155 85.7055 57.0155 84.8722V73.535H50.1222V76.7418H52.7735V101.335H56.8135V100.3C56.8135 99.6182 56.7377 99.0122 56.7377 99.0122H56.8135C56.8135 99.0122 58.2022 101.739 61.9392 101.739C66.459 101.714 69.8172 98.2043 69.8172 92.7503ZM65.5247 92.8008C65.5247 96.2095 63.53 98.1033 61.1817 98.1033C58.3285 98.1033 56.9397 95.4772 56.9397 92.826C56.9397 89.0132 59.0355 87.4225 61.2575 87.4225C63.7572 87.4225 65.5247 89.5435 65.5247 92.8008ZM48.0013 87.3468H49.7435V84.1653H39.1385C39.0123 84.847 38.9365 85.3773 38.9365 85.958C38.9365 92.3715 46.7135 93.23 46.7135 96.159C46.7135 97.573 45.754 97.9518 44.845 97.9518C43.2038 97.9518 42.0675 95.957 42.0675 95.957L39.1385 97.977C39.1385 97.977 40.7545 101.714 45.249 101.714C48.077 101.714 51.208 100.098 51.208 96.4115C51.208 91.311 43.734 90.0485 43.6077 87.3468H48.0013ZM29.1395 101.31H38.3557V98.1033H35.9065V84.1653H28.988V87.372H31.6393V98.1285H29.1395V101.31ZM36.3862 75.9085C36.3862 74.3682 35.1995 73.1562 33.5583 73.1562C31.917 73.1562 30.7302 74.3682 30.7302 75.9085C30.7302 77.474 31.917 78.7112 33.5583 78.7112C35.1995 78.7112 36.3862 77.474 36.3862 75.9085ZM10 101.31H28.1043V94.0633H24.3168V97.775H17.2467V77.0447H20.1252V73.5097H10V77.0447H12.8532V98.0022H10V101.31Z" fill="#0095D5"/>
</svg>
