<svg width="172" height="172" viewBox="0 0 172 172" fill="none" xmlns="http://www.w3.org/2000/svg">
<rect width="172" height="172" fill="white"/>
<path d="M48.2156 104.68L58.5175 95.9232C59.5477 95.0647 60.4061 94.292 61.1359 93.6052C61.8656 92.9184 62.4236 92.2316 62.8528 91.6307C63.2821 90.9868 63.6255 90.3859 63.7972 89.785C64.0118 89.184 64.0977 88.5401 64.0977 87.8534C64.0977 86.351 63.6255 85.235 62.6811 84.4194C61.7368 83.6038 60.6208 83.2175 59.2472 83.2175C57.8736 83.2175 56.6717 83.6038 55.6415 84.3335C54.6113 85.0633 53.4953 86.2222 52.3363 87.7246L48.6019 84.8057C49.3316 83.8184 50.0184 82.917 50.791 82.1015C51.5208 81.3288 52.3363 80.642 53.1948 80.1269C54.0533 79.6118 55.0406 79.1826 56.0708 78.8821C57.101 78.5817 58.3028 78.4529 59.6335 78.4529C61.0929 78.4529 62.4236 78.6675 63.6255 79.0967C64.8274 79.526 65.9005 80.1269 66.759 80.8996C67.6175 81.6722 68.3043 82.6166 68.7764 83.7326C69.2486 84.8486 69.5061 86.0505 69.5061 87.3812V87.467C69.5061 88.626 69.3344 89.6991 69.034 90.6434C68.7335 91.5878 68.2613 92.5321 67.6175 93.3906C66.9736 94.292 66.158 95.1505 65.1708 96.0519C64.1835 96.9534 63.0245 97.9406 61.7368 99.0137L55.5557 104.165H69.8066V108.801H48.2156V104.68Z" fill="#D50C19"/>
<path d="M88.0497 103.993C89.5091 103.993 90.8827 103.692 92.1275 103.177C93.3723 102.619 94.4454 101.89 95.3039 100.902C96.2054 99.9579 96.8921 98.8419 97.3643 97.5542C97.8794 96.2664 98.094 94.8929 98.094 93.4334V93.3476C98.094 91.8881 97.8365 90.5145 97.3643 89.2268C96.8921 87.9391 96.1624 86.823 95.261 85.8358C94.3596 84.8914 93.2865 84.1188 92.0417 83.5608C90.7969 83.0028 89.4233 82.7023 87.9638 82.7023C86.5044 82.7023 85.1308 83.0028 83.886 83.5608C82.6412 84.1188 81.611 84.8485 80.7096 85.8358C79.8082 86.7801 79.1214 87.8962 78.6492 89.1839C78.177 90.4716 77.9195 91.8452 77.9195 93.3046V93.3905C77.9195 94.8499 78.177 96.2235 78.6492 97.5113C79.1643 98.799 79.8511 99.915 80.7525 100.902C81.6539 101.847 82.727 102.619 83.9719 103.177C85.1737 103.692 86.5473 103.993 88.0497 103.993ZM87.9638 108.8C85.6459 108.8 83.5426 108.414 81.611 107.599C79.6794 106.783 78.0483 105.667 76.6747 104.293C75.3011 102.92 74.228 101.246 73.4553 99.3999C72.6827 97.5112 72.2964 95.5367 72.2964 93.4334V93.3476C72.2964 91.2443 72.6827 89.2268 73.4553 87.3811C74.228 85.5353 75.3011 83.8612 76.7176 82.4447C78.1341 81.0282 79.7653 79.9122 81.6969 79.0966C83.6285 78.2811 85.7318 77.8518 88.0497 77.8518C90.3676 77.8518 92.4709 78.2811 94.4025 79.0537C96.2912 79.8693 97.9653 80.9853 99.3388 82.3589C100.712 83.7325 101.786 85.3636 102.558 87.2523C103.331 89.098 103.717 91.1155 103.717 93.2188V93.3046C103.717 95.4079 103.331 97.4254 102.558 99.2712C101.786 101.117 100.712 102.791 99.2959 104.207C97.8794 105.624 96.2483 106.74 94.3167 107.556C92.3851 108.414 90.2388 108.8 87.9638 108.8Z" fill="#D50C19"/>
<path d="M105.734 104.68L116.036 95.9232C117.066 95.0647 117.925 94.292 118.655 93.6052C119.384 92.9184 119.942 92.2316 120.372 91.6307C120.801 90.9868 121.144 90.3859 121.316 89.785C121.531 89.184 121.616 88.5401 121.616 87.8534C121.616 86.351 121.144 85.235 120.243 84.4194C119.299 83.6038 118.182 83.2175 116.809 83.2175C115.435 83.2175 114.233 83.6038 113.203 84.3335C112.173 85.0633 111.057 86.2222 109.898 87.7246L106.164 84.8057C106.893 83.8184 107.623 82.917 108.353 82.1015C109.082 81.3288 109.898 80.642 110.757 80.1269C111.658 79.6118 112.602 79.1826 113.632 78.8821C114.663 78.5817 115.865 78.4529 117.195 78.4529C118.655 78.4529 119.985 78.6675 121.187 79.0967C122.389 79.526 123.462 80.1269 124.321 80.8996C125.179 81.6722 125.866 82.6166 126.338 83.7326C126.81 84.8486 127.068 86.0505 127.068 87.3812V87.467C127.068 88.626 126.896 89.6991 126.596 90.6434C126.295 91.5878 125.78 92.5321 125.136 93.3906C124.492 94.292 123.677 95.1505 122.69 96.0519C121.702 96.9534 120.543 97.9406 119.256 99.0137L113.074 104.165H127.325V108.801H105.734V104.68Z" fill="#D50C19"/>
<path d="M145.525 103.993C146.985 103.993 148.358 103.692 149.603 103.177C150.848 102.619 151.878 101.89 152.78 100.902C153.681 99.9579 154.368 98.8419 154.84 97.5542C155.355 96.2664 155.57 94.8929 155.57 93.4334V93.3476C155.57 91.8881 155.312 90.5145 154.84 89.2268C154.325 87.9391 153.638 86.823 152.737 85.8358C151.835 84.8914 150.762 84.1188 149.517 83.5608C148.273 83.0028 146.899 82.7023 145.44 82.7023C143.98 82.7023 142.607 83.0028 141.362 83.5608C140.117 84.1188 139.044 84.8485 138.185 85.8358C137.284 86.7801 136.597 87.8962 136.125 89.1839C135.61 90.4716 135.395 91.8452 135.395 93.3046V93.3905C135.395 94.8499 135.653 96.2235 136.125 97.5113C136.597 98.799 137.327 99.915 138.228 100.902C139.13 101.847 140.203 102.619 141.448 103.177C142.692 103.692 144.066 103.993 145.525 103.993ZM145.44 108.8C143.122 108.8 141.018 108.414 139.087 107.599C137.155 106.783 135.524 105.667 134.15 104.293C132.777 102.92 131.704 101.246 130.931 99.3999C130.158 97.5112 129.772 95.5367 129.772 93.4334V93.3476C129.772 91.2443 130.158 89.2268 130.931 87.3811C131.704 85.5353 132.777 83.8612 134.193 82.4447C135.61 81.0282 137.241 79.9122 139.173 79.0966C141.104 78.2811 143.207 77.8518 145.525 77.8518C147.843 77.8518 149.947 78.2811 151.835 79.0537C153.724 79.8693 155.398 80.9853 156.772 82.3589C158.145 83.7325 159.218 85.3636 159.991 87.2523C160.764 89.098 161.15 91.1155 161.15 93.2188V93.3046C161.15 95.4079 160.764 97.4254 159.991 99.2712C159.218 101.117 158.145 102.791 156.729 104.207C155.312 105.624 153.681 106.74 151.749 107.556C149.861 108.414 147.757 108.8 145.44 108.8Z" fill="#D50C19"/>
<path d="M104.103 71.5849V70.5547C104.447 70.5118 104.833 70.4259 105.176 70.4259V64.3307C104.79 64.3307 104.404 64.2448 104.103 64.159V63.1717H107.881V64.159C107.537 64.2448 107.151 64.2877 106.808 64.3307V70.2542H108.439C108.482 69.9538 108.525 69.6104 108.567 69.2241H109.769V71.5849H104.103ZM99.8109 66.0906C99.6392 65.6184 99.5104 65.2321 99.4246 64.7599C99.3387 65.1891 99.2099 65.6613 99.0382 66.1335L98.3085 68.1509H100.584L99.8109 66.0906ZM100.412 71.5849V70.5547C100.669 70.5118 101.013 70.4689 101.313 70.4259L100.97 69.4387H97.9222L97.5788 70.4259C97.8793 70.4689 98.2227 70.5118 98.4802 70.5547V71.5849H95.3038V70.5547C95.5184 70.5118 95.733 70.4689 95.9477 70.4259L98.5231 63.1288H100.498L103.116 70.4259C103.331 70.4259 103.588 70.4689 103.803 70.5547V71.5849H100.412ZM94.5741 68.3226V71.1986C93.7585 71.542 92.6854 71.7137 91.6552 71.7137C88.9939 71.7137 87.4486 70.1255 87.4486 67.5929C87.4486 64.9316 89.2514 63.0858 92.1274 63.0858C92.9 63.0858 93.7156 63.2146 94.4882 63.3863V65.6613H93.2434C93.1576 65.3179 93.1146 64.9745 93.1146 64.6311C92.7712 64.5453 92.4278 64.5024 92.0845 64.5024C90.4533 64.5024 89.2514 65.5325 89.2514 67.4641C89.2514 69.267 90.2387 70.2972 91.9128 70.2972C92.2991 70.2972 92.6425 70.2542 92.9859 70.1684V68.4085C92.5995 68.3656 92.2132 68.3226 91.9128 68.2368V67.2066H95.3038V68.2368C95.0462 68.2368 94.7887 68.2797 94.5741 68.3226ZM86.2038 64.3307V68.3656C86.2038 70.5976 84.959 71.7137 82.7269 71.7137C80.0656 71.7137 79.4646 70.2542 79.4646 68.666V64.3307C79.2071 64.3307 78.9066 64.2448 78.692 64.2019V63.1717H81.9972V64.2019C81.6967 64.2877 81.3962 64.3307 81.0958 64.3307V68.5802C81.0958 69.6533 81.4392 70.383 82.8128 70.383C84.0576 70.383 84.5727 69.8679 84.5727 68.4085V64.3307C84.2722 64.3307 83.9717 64.2877 83.6712 64.2019V63.1717H86.9335V64.2019C86.7618 64.2448 86.5043 64.2877 86.2038 64.3307ZM76.8462 65.5325C76.8033 65.1462 76.7175 64.8028 76.7175 64.5024H75.4297V70.4259C75.8161 70.4689 76.2024 70.5118 76.5028 70.5547V71.5849H72.6826V70.5547C73.026 70.5118 73.4123 70.4259 73.7557 70.4259V64.5024H72.4679C72.425 64.8028 72.3821 65.1462 72.3392 65.5325H71.1373V63.1717H78.0052V65.5325H76.8462ZM67.317 64.4594C67.1024 64.4594 66.8448 64.4594 66.7161 64.5024V66.949C66.8448 66.949 67.0594 66.992 67.2741 66.992C68.2613 66.992 68.8623 66.4769 68.8623 65.7042C68.8194 64.8457 68.3472 64.4594 67.317 64.4594ZM68.9481 71.5849L66.8878 68.108H66.6731V70.4259C66.9307 70.4689 67.1882 70.4689 67.4458 70.5547V71.5849H63.9689V70.5547C64.3123 70.5118 64.6986 70.4259 65.042 70.4259V64.3307C64.6557 64.3307 64.2694 64.2448 63.9689 64.159V63.1717H64.9561C65.2995 63.1717 66.4585 63.1288 67.4887 63.1288C69.3344 63.1288 70.5363 63.7726 70.5363 65.4896C70.5363 66.6486 69.7208 67.5071 68.5618 67.7646C68.7335 67.9792 68.8623 68.1939 68.9911 68.3656L70.2788 70.383C70.5363 70.4259 70.7939 70.4689 71.0944 70.5118V71.542H68.9481V71.5849ZM59.4189 64.5024C58.2599 64.5024 57.1868 65.4467 57.1868 67.2925C57.1868 69.0953 57.8736 70.2113 59.376 70.2113C60.492 70.2113 61.651 69.3528 61.651 67.3354C61.651 65.4896 60.8783 64.5024 59.4189 64.5024ZM59.2901 71.7137C56.7146 71.7137 55.4698 70.0825 55.4698 67.4641C55.4698 64.6741 57.3156 63 59.5906 63C61.8227 63 63.4109 64.3307 63.4109 67.2495C63.4109 70.0396 61.5651 71.7137 59.2901 71.7137ZM51.4778 64.4594C51.2632 64.4594 51.0915 64.4594 50.9198 64.4594V67.2495C51.0915 67.2495 51.2632 67.2925 51.392 67.2925C52.3793 67.2925 53.0661 66.7344 53.0661 65.833C53.0661 64.9745 52.5939 64.4594 51.4778 64.4594ZM51.4778 68.6231C51.3491 68.6231 51.1344 68.6231 50.9198 68.6231V70.4259C51.3061 70.4689 51.6925 70.5118 51.9929 70.5547V71.5849H48.2156V70.5547C48.559 70.5118 48.9453 70.4259 49.2887 70.4259V64.3307C48.9024 64.3307 48.516 64.2448 48.2156 64.159V63.1717H49.2028C49.5892 63.1717 50.7052 63.1288 51.5637 63.1288C53.6241 63.1288 54.7401 64.0731 54.7401 65.7472C54.7401 67.3354 53.4953 68.6231 51.4778 68.6231Z" fill="#006731"/>
<path d="M23.0189 63.3865C15.5929 66.3053 11 74.0747 11 85.9648V104.036C11 104.036 12.5024 92.4035 23.0189 89.0553V63.3865Z" fill="#006731"/>
<path d="M26.5816 90.8582C22.2892 91.7166 15.9793 95.1935 14.0906 100.044C23.3623 88.7978 42.2061 99.6577 43.0646 78.5388C43.3222 71.8426 43.3651 63.6011 43.3651 63.6011C33.4925 64.1591 26.5816 66.7775 26.5816 66.7775V90.8582Z" fill="#D50C19"/>
<path d="M25.3796 96.9534C25.3796 96.9534 15.3352 97.7689 14.4767 103.478C13.79 107.942 25.3796 108.071 25.3796 108.071V96.9534Z" fill="#006731"/>
</svg>
