<svg width="172" height="172" viewBox="0 0 172 172" fill="none" xmlns="http://www.w3.org/2000/svg">
<rect width="172" height="172" fill="white"/>
<path d="M10.4178 77.6694H97.2641" stroke="#1F1F21" stroke-width="0.4343" stroke-miterlimit="3.8636"/>
<path fill-rule="evenodd" clip-rule="evenodd" d="M31.7305 104.871L31.6166 102.021C30.8188 103.237 29.755 104.339 28.4634 105.25C26.9817 106.238 25.6141 106.732 24.2084 106.732C21.0552 106.732 18.5099 105.402 16.7243 102.743C15.1667 100.426 14.3689 97.6904 14.3689 94.5372C14.3689 91.308 15.1667 88.5347 16.8003 86.2552C18.6618 83.6719 21.2072 82.3422 24.5124 82.3422C26.2219 82.3422 27.5516 82.7981 28.3494 83.7099L29.6411 81.7344C28.1214 81.1265 26.4499 80.8606 24.6263 80.8606C20.4474 80.8606 17.1042 82.1903 14.5209 84.8496C11.9755 87.4709 10.7218 90.7761 10.7218 94.7651C10.7218 98.5262 11.8995 101.679 14.1789 104.225C16.6103 106.884 19.7635 108.252 23.7146 108.252C26.4879 108.214 29.1852 107.112 31.7305 104.871Z" fill="#1F1F21"/>
<path fill-rule="evenodd" clip-rule="evenodd" d="M49.8141 99.6279H39.0628L44.4575 85.6094L49.8141 99.6279ZM56.5385 107.72L45.6352 81.4304C45.2553 81.5064 44.9134 81.5444 44.6854 81.5444C44.3815 81.5444 44.0776 81.5064 43.7737 81.4304L33.3643 107.72C33.7442 107.568 34.1241 107.492 34.58 107.492C35.0358 107.492 35.4917 107.568 35.9856 107.72L38.455 100.996H50.498L52.9674 107.72C53.3473 107.53 53.8411 107.416 54.525 107.416C55.2088 107.416 55.8926 107.53 56.5385 107.72Z" fill="#1F1F21"/>
<path fill-rule="evenodd" clip-rule="evenodd" d="M72.5325 99.2099C72.5325 97.2344 72.0006 95.5628 70.9369 94.2332C70.2151 93.3214 68.7714 92.2197 66.7199 90.852C63.3388 88.6865 61.7052 86.711 61.7052 84.9255C61.7052 84.0517 62.0091 83.3299 62.541 82.722C63.0729 82.1142 63.7947 81.8483 64.7065 81.8483C65.7322 81.8483 66.53 82.0382 67.0999 82.4561C67.5937 82.798 68.1636 83.4059 68.6955 84.3176L69.7212 81.5823C68.6195 80.5186 67.0239 79.9487 64.9344 79.9487C63.2248 79.9487 61.8572 80.2906 60.9454 81.0505C60.0716 81.7723 59.4258 82.912 59.1219 84.5456C59.0839 84.8495 59.0459 85.1914 59.0459 85.5333C59.0459 88.0787 61.0214 90.776 65.0104 93.6633C66.53 94.765 67.6317 95.6768 68.2396 96.4366C69.1134 97.5383 69.5692 98.83 69.5692 100.274C69.5692 101.755 69.0754 103.085 68.0496 104.225C66.9479 105.402 65.6562 106.01 64.0986 106.01C63.1109 106.01 62.1611 105.668 61.1733 104.908C60.1856 104.187 59.6157 103.389 59.3118 102.477L57.8682 105.136C58.552 105.896 59.4638 106.58 60.6035 107.15C61.7432 107.72 62.8069 107.986 63.7947 107.986C66.1881 107.986 68.2776 107.112 69.9491 105.326C71.6967 103.541 72.5325 101.527 72.5325 99.2099Z" fill="#1F1F21"/>
<path fill-rule="evenodd" clip-rule="evenodd" d="M90.5778 99.6279H79.8265L85.2212 85.6094L90.5778 99.6279ZM97.2642 107.72L86.3609 81.4304C85.981 81.5064 85.6391 81.5444 85.4111 81.5444C85.1072 81.5444 84.8033 81.5064 84.4994 81.4304L74.09 107.72C74.4699 107.568 74.8498 107.492 75.3057 107.492C75.7615 107.492 76.2174 107.568 76.7113 107.72L79.1807 100.996H91.2237L93.6931 107.72C94.073 107.53 94.5668 107.416 95.2507 107.416C95.9345 107.416 96.6183 107.53 97.2642 107.72Z" fill="#1F1F21"/>
<path fill-rule="evenodd" clip-rule="evenodd" d="M18.472 120.143L17.4083 113.304C17.3323 113.342 17.2563 113.342 17.2183 113.342C17.1424 113.342 17.1044 113.342 17.0284 113.304L14.559 119.041L12.1276 113.266C12.0896 113.266 12.0136 113.304 11.9377 113.304C11.8617 113.304 11.8237 113.304 11.7477 113.266L10.8359 120.105C10.9499 120.067 11.0639 120.029 11.1779 120.029C11.3298 120.029 11.4438 120.067 11.5578 120.105L12.0896 114.596L14.559 120.712L17.1804 114.482L17.7122 120.067C17.8262 120.029 17.9402 119.991 18.0541 119.991C18.1681 120.067 18.3201 120.067 18.472 120.143Z" fill="#A70A2D"/>
<path fill-rule="evenodd" clip-rule="evenodd" d="M20.2953 119.991V119.801C20.1434 119.839 20.0294 119.839 20.0294 119.839C19.9154 119.839 19.8394 119.725 19.8394 119.497V119.459V119.421V115.774C19.6875 115.774 19.5735 115.812 19.4975 115.812C19.4215 115.812 19.2696 115.812 19.1556 115.774V119.573C19.1556 119.953 19.3456 120.143 19.7255 120.143C19.9154 120.143 20.1054 120.105 20.2953 119.991ZM19.9154 114.216C19.9154 113.912 19.7634 113.76 19.4975 113.76C19.1936 113.76 19.0416 113.912 19.0416 114.216C19.0416 114.52 19.1936 114.672 19.4975 114.672C19.7634 114.672 19.9154 114.52 19.9154 114.216Z" fill="#A70A2D"/>
<path fill-rule="evenodd" clip-rule="evenodd" d="M23.2588 118.851C23.2588 118.395 23.1068 118.053 22.8029 117.825C22.499 117.635 22.1951 117.483 21.9291 117.293C21.6252 117.103 21.4353 116.837 21.4353 116.533C21.4353 116.192 21.6632 116.04 22.0431 116.04C22.347 116.04 22.537 116.154 22.689 116.42L22.9169 115.964C22.651 115.812 22.385 115.774 22.0811 115.774C21.7772 115.774 21.4733 115.85 21.2453 116.078C21.0174 116.268 20.8654 116.533 20.8654 116.837C20.8654 117.293 21.0174 117.635 21.3213 117.901C21.6252 118.091 21.9291 118.243 22.1951 118.433C22.499 118.623 22.689 118.889 22.689 119.193C22.689 119.421 22.613 119.611 22.461 119.801C22.309 119.991 22.1191 120.067 21.8912 120.067C21.7392 120.067 21.5872 119.991 21.3973 119.877C21.2073 119.763 21.0934 119.649 21.0174 119.497L20.7894 120.143C21.0554 120.257 21.4353 120.333 21.8532 120.333C22.2331 120.333 22.575 120.181 22.8409 119.915C23.1068 119.649 23.2588 119.231 23.2588 118.851Z" fill="#A70A2D"/>
<path fill-rule="evenodd" clip-rule="evenodd" d="M26.9819 116.8C26.9819 117.066 26.8679 117.255 26.602 117.369C26.336 117.483 26.0701 117.559 25.8042 117.673C25.4623 117.825 25.1963 118.091 25.0444 118.395C25.0064 118.205 24.9684 118.015 24.9684 117.787C24.9684 117.331 25.0823 116.952 25.2723 116.61C25.5382 116.192 25.8801 116.002 26.298 116.002C26.526 116.002 26.6779 116.078 26.8299 116.268C26.9439 116.382 26.9819 116.572 26.9819 116.8ZM27.8557 119.231C27.4378 119.649 26.9439 119.839 26.412 119.839C25.9181 119.839 25.5382 119.611 25.3103 119.193C25.2343 119.041 25.1963 118.927 25.1963 118.813C25.1963 118.547 25.4243 118.319 25.8422 118.167C26.2221 118.015 26.64 117.863 27.0199 117.711C27.4378 117.521 27.6657 117.255 27.6657 116.914C27.6657 116.534 27.5517 116.23 27.2478 116.04C26.9819 115.85 26.64 115.736 26.2601 115.736C25.6522 115.736 25.1583 116.002 24.7784 116.496C24.4365 116.952 24.2845 117.445 24.2845 118.053C24.2845 118.661 24.4745 119.155 24.8544 119.611C25.2723 120.067 25.7662 120.295 26.374 120.295C26.9059 120.295 27.3998 120.105 27.8936 119.725L27.8557 119.231Z" fill="#A70A2D"/>
<path fill-rule="evenodd" clip-rule="evenodd" d="M31.1228 116.572V115.964C30.8949 115.812 30.629 115.736 30.401 115.736C30.0211 115.736 29.6792 115.888 29.4513 116.23V115.736C29.3373 115.774 29.2233 115.812 29.1093 115.812C28.9954 115.812 28.8814 115.774 28.7294 115.736V119.421V119.459V119.497C28.7294 119.725 28.6535 119.839 28.5395 119.839C28.5395 119.839 28.4255 119.839 28.2736 119.801V119.991C28.4635 120.067 28.6535 120.105 28.8434 120.105C29.0334 120.105 29.1473 120.067 29.2993 119.953C29.4133 119.877 29.4513 119.725 29.4513 119.573V117.217C29.4513 116.952 29.5652 116.686 29.7552 116.458C29.9451 116.23 30.1731 116.116 30.439 116.116C30.7049 116.078 30.9329 116.268 31.1228 116.572Z" fill="#A70A2D"/>
<path fill-rule="evenodd" clip-rule="evenodd" d="M33.2881 119.991V119.801C33.1362 119.839 33.0222 119.839 33.0222 119.839C32.9082 119.839 32.8322 119.725 32.8322 119.497V119.459V119.421V115.774C32.6803 115.774 32.5663 115.812 32.4903 115.812C32.3764 115.812 32.2624 115.812 32.1484 115.774V119.573C32.1484 119.953 32.3384 120.143 32.7183 120.143C32.8702 120.143 33.0602 120.105 33.2881 119.991ZM32.8702 114.216C32.8702 113.912 32.7183 113.76 32.4523 113.76C32.1484 113.76 31.9965 113.912 31.9965 114.216C31.9965 114.52 32.1484 114.672 32.4523 114.672C32.7183 114.672 32.8702 114.52 32.8702 114.216Z" fill="#A70A2D"/>
<path fill-rule="evenodd" clip-rule="evenodd" d="M37.3912 119.763L37.2772 119.345C36.8593 119.725 36.5174 119.915 36.2135 119.915C35.6816 119.915 35.3017 119.687 34.9978 119.269C34.7319 118.889 34.6179 118.433 34.6179 117.939C34.6179 117.445 34.6939 117.065 34.8458 116.761C35.0738 116.344 35.4157 116.154 35.8716 116.154C36.0995 116.154 36.3275 116.192 36.5554 116.306C36.7834 116.42 36.9353 116.533 37.0113 116.723L37.2012 116.116C36.9353 115.964 36.7834 115.888 36.6694 115.85C36.5174 115.812 36.3275 115.774 36.0995 115.774C35.4157 115.774 34.8458 115.964 34.4279 116.382C34.01 116.799 33.7821 117.331 33.7821 117.977C33.7821 118.623 33.9721 119.155 34.352 119.573C34.7699 120.029 35.3017 120.257 35.9476 120.257C36.4794 120.257 36.9733 120.105 37.3912 119.763Z" fill="#A70A2D"/>
<path fill-rule="evenodd" clip-rule="evenodd" d="M41.7982 117.977C41.7982 118.813 41.5323 119.421 41.0004 119.763C40.7725 119.915 40.5825 119.953 40.3546 119.953C39.8987 119.953 39.5568 119.725 39.3288 119.269C39.1389 118.927 39.0629 118.547 39.0629 118.053C39.0629 117.141 39.3288 116.534 39.8227 116.154C40.0126 116.002 40.2406 115.964 40.4685 115.964C40.9244 115.964 41.2663 116.192 41.4943 116.686C41.7222 117.066 41.7982 117.483 41.7982 117.977ZM42.558 117.939C42.558 117.331 42.3681 116.8 42.0261 116.382C41.6462 115.926 41.1144 115.698 40.5065 115.698C39.8607 115.698 39.3288 115.926 38.9109 116.382C38.531 116.8 38.3411 117.331 38.3411 117.977V118.053C38.3411 118.357 38.3791 118.623 38.455 118.889C38.607 119.307 38.8349 119.611 39.1769 119.877C39.5188 120.105 39.8987 120.257 40.3546 120.257C41.0004 120.257 41.5323 120.029 41.9502 119.573C42.3681 119.117 42.558 118.585 42.558 117.939ZM41.4563 113.988C41.3423 114.026 41.1904 114.064 41.0004 114.064C40.8104 114.064 40.6205 114.026 40.4685 113.988L40.1266 115.128H40.4685L41.4563 113.988Z" fill="#A70A2D"/>
<path fill-rule="evenodd" clip-rule="evenodd" d="M45.9009 116.572V115.964C45.673 115.812 45.407 115.736 45.1791 115.736C44.7992 115.736 44.4573 115.888 44.2293 116.23V115.736C44.1154 115.774 44.0014 115.812 43.8874 115.812C43.7735 115.812 43.6595 115.774 43.5075 115.736V119.421V119.459V119.497C43.5075 119.725 43.4315 119.839 43.3176 119.839C43.3176 119.839 43.2036 119.839 43.0516 119.801V119.991C43.2416 120.067 43.4315 120.105 43.6215 120.105C43.8114 120.105 43.9254 120.067 44.0774 119.953C44.1914 119.877 44.2293 119.725 44.2293 119.573V117.217C44.2293 116.952 44.3433 116.686 44.5333 116.458C44.7232 116.23 44.9512 116.116 45.2171 116.116C45.483 116.078 45.711 116.268 45.9009 116.572Z" fill="#A70A2D"/>
<path fill-rule="evenodd" clip-rule="evenodd" d="M50.1179 117.863C50.1179 118.775 49.89 119.383 49.3961 119.725C49.2061 119.877 49.0162 119.915 48.7882 119.915C48.3703 119.915 48.0664 119.725 47.8385 119.307C47.6485 118.965 47.5725 118.623 47.5725 118.205C47.5725 117.217 47.8385 116.572 48.3323 116.23C48.5223 116.116 48.7122 116.04 48.9022 116.04C49.3201 116.04 49.624 116.268 49.852 116.686C50.0039 117.066 50.1179 117.445 50.1179 117.863ZM51.3716 119.991V119.801C51.2196 119.839 51.1436 119.839 51.1056 119.839C50.9537 119.839 50.8777 119.725 50.8777 119.497V119.459V119.421V113.304C50.7637 113.304 50.6498 113.304 50.4978 113.342C50.3838 113.304 50.2699 113.304 50.1559 113.304V116.686C49.89 116.078 49.4341 115.736 48.7502 115.736C48.1804 115.736 47.7245 115.964 47.3446 116.42C47.0407 116.838 46.8507 117.331 46.8507 117.863C46.8507 119.459 47.4966 120.257 48.8262 120.257C49.1301 120.257 49.3961 120.181 49.586 120.067C49.738 119.953 49.9279 119.801 50.1559 119.497C50.1939 119.953 50.4218 120.181 50.7637 120.181C50.9917 120.143 51.1816 120.105 51.3716 119.991Z" fill="#A70A2D"/>
<path fill-rule="evenodd" clip-rule="evenodd" d="M53.0812 119.991V119.801C52.9293 119.839 52.8153 119.839 52.8153 119.839C52.7013 119.839 52.6253 119.725 52.6253 119.497V119.459V119.421V115.774C52.5114 115.774 52.3594 115.812 52.2834 115.812C52.1695 115.812 52.0555 115.812 51.9415 115.774V119.573C51.9415 119.953 52.1315 120.143 52.5114 120.143C52.7013 120.143 52.8533 120.105 53.0812 119.991ZM52.6633 114.216C52.6633 113.912 52.5114 113.76 52.2454 113.76C51.9415 113.76 51.7896 113.912 51.7896 114.216C51.7896 114.52 51.9415 114.672 52.2454 114.672C52.5114 114.672 52.6633 114.52 52.6633 114.216Z" fill="#A70A2D"/>
<path fill-rule="evenodd" clip-rule="evenodd" d="M56.1582 119.231C55.8923 119.687 55.5504 119.877 55.1325 119.877C54.8666 119.877 54.6766 119.801 54.5247 119.611C54.3727 119.459 54.2967 119.231 54.2967 119.003C54.2967 118.699 54.4487 118.433 54.7146 118.243C54.9805 118.053 55.2845 117.863 55.5504 117.711C55.8543 117.483 56.0823 117.255 56.1203 117.028V119.231H56.1582ZM57.298 119.991V119.801C57.184 119.839 57.108 119.839 57.07 119.839C56.9181 119.839 56.8421 119.725 56.8421 119.459V117.217C56.8421 116.23 56.3482 115.736 55.4364 115.736C55.1705 115.736 54.8286 115.85 54.3727 116.078L54.5626 116.8C54.6006 116.61 54.7526 116.42 54.9046 116.268C55.0565 116.116 55.2465 116.04 55.4744 116.04C55.6264 116.04 55.7783 116.116 55.8923 116.23C56.0063 116.382 56.0823 116.496 56.0823 116.686C56.0823 116.914 55.8543 117.141 55.4744 117.331C54.7906 117.673 54.4107 117.863 54.2967 117.939C53.8788 118.243 53.6509 118.623 53.6509 119.117C53.6509 119.459 53.7649 119.725 53.9548 119.915C54.1448 120.105 54.4107 120.219 54.7526 120.219C55.3604 120.219 55.8163 119.991 56.1962 119.573C56.2342 119.953 56.4242 120.143 56.8041 120.143C56.9181 120.105 57.108 120.067 57.298 119.991Z" fill="#A70A2D"/>
<path fill-rule="evenodd" clip-rule="evenodd" d="M63.6807 117.863C63.6807 118.775 63.4528 119.383 62.9589 119.725C62.769 119.877 62.579 119.915 62.3511 119.915C61.9332 119.915 61.6292 119.725 61.4013 119.307C61.2113 118.965 61.1354 118.623 61.1354 118.205C61.1354 117.217 61.4013 116.572 61.8952 116.23C62.0851 116.116 62.2751 116.04 62.465 116.04C62.8829 116.04 63.1869 116.268 63.4148 116.686C63.5668 117.066 63.6807 117.445 63.6807 117.863ZM64.9344 119.991V119.801C64.7825 119.839 64.7065 119.839 64.6685 119.839C64.5165 119.839 64.4405 119.725 64.4405 119.497V119.459V119.421V113.304C64.3266 113.304 64.2126 113.304 64.0606 113.342C63.9467 113.304 63.8327 113.304 63.7187 113.304V116.686C63.4528 116.078 62.9969 115.736 62.3131 115.736C61.7432 115.736 61.2873 115.964 60.9074 116.42C60.6035 116.838 60.4515 117.331 60.4515 117.863C60.4515 119.459 61.0974 120.257 62.427 120.257C62.731 120.257 62.9969 120.181 63.1869 120.067C63.3388 119.953 63.5288 119.801 63.7567 119.497C63.7947 119.953 64.0226 120.181 64.3646 120.181C64.5545 120.143 64.7065 120.105 64.9344 119.991Z" fill="#A70A2D"/>
<path fill-rule="evenodd" clip-rule="evenodd" d="M68.2015 116.8C68.2015 117.066 68.0875 117.255 67.8216 117.369C67.5556 117.483 67.2897 117.559 67.0238 117.673C66.6819 117.825 66.4159 118.091 66.264 118.395C66.226 118.205 66.188 118.015 66.188 117.787C66.188 117.331 66.302 116.952 66.4919 116.61C66.7578 116.192 67.0998 116.002 67.5176 116.002C67.7456 116.002 67.8976 116.078 68.0495 116.268C68.1635 116.382 68.2015 116.572 68.2015 116.8ZM69.0753 119.231C68.6574 119.649 68.1635 119.839 67.6316 119.839C67.1377 119.839 66.7578 119.611 66.5299 119.193C66.4539 119.041 66.4159 118.927 66.4159 118.813C66.4159 118.547 66.6439 118.319 67.0618 118.167C67.4417 118.015 67.8596 117.863 68.2395 117.711C68.6574 117.521 68.8853 117.255 68.8853 116.914C68.8853 116.534 68.7713 116.23 68.4674 116.04C68.2015 115.85 67.8596 115.736 67.4797 115.736C66.8718 115.736 66.3779 116.002 65.998 116.496C65.6561 116.952 65.5042 117.445 65.5042 118.053C65.5042 118.661 65.6941 119.155 66.074 119.611C66.4919 120.067 66.9858 120.295 67.5936 120.295C68.1255 120.295 68.6194 120.105 69.1132 119.725L69.0753 119.231Z" fill="#A70A2D"/>
<path fill-rule="evenodd" clip-rule="evenodd" d="M75.9515 120.143C75.9136 120.067 75.9136 119.953 75.9136 119.877C75.9136 119.801 75.9136 119.725 75.9515 119.611H73.4062V113.798C73.4062 113.608 73.3302 113.456 73.2162 113.342C73.1023 113.228 72.9123 113.19 72.7224 113.19C72.5324 113.19 72.3424 113.228 72.1145 113.342V113.532C72.3045 113.494 72.4184 113.494 72.4184 113.494C72.5704 113.494 72.6464 113.608 72.6464 113.874V113.912V113.95V120.105H75.9515V120.143Z" fill="#A70A2D"/>
<path fill-rule="evenodd" clip-rule="evenodd" d="M78.2689 119.991V119.801C78.1169 119.839 78.0029 119.839 78.0029 119.839C77.8889 119.839 77.813 119.725 77.813 119.497V119.459V119.421V115.774C77.699 115.774 77.547 115.812 77.4711 115.812C77.3951 115.812 77.2431 115.812 77.1291 115.774V119.573C77.1291 119.953 77.3191 120.143 77.699 120.143C77.8889 120.143 78.0789 120.105 78.2689 119.991ZM77.851 114.216C77.851 113.912 77.699 113.76 77.4331 113.76C77.1291 113.76 76.9772 113.912 76.9772 114.216C76.9772 114.52 77.1291 114.672 77.4331 114.672C77.737 114.672 77.851 114.52 77.851 114.216Z" fill="#A70A2D"/>
<path fill-rule="evenodd" clip-rule="evenodd" d="M81.2321 118.851C81.2321 118.395 81.0801 118.053 80.7382 117.825C80.4343 117.635 80.1304 117.483 79.8644 117.293C79.5605 117.103 79.4085 116.837 79.4085 116.533C79.4085 116.192 79.6365 116.04 80.0164 116.04C80.3203 116.04 80.5103 116.154 80.6622 116.42L80.8902 115.964C80.6242 115.812 80.3583 115.774 80.0544 115.774C79.7505 115.774 79.4465 115.85 79.2186 116.078C78.9906 116.268 78.8387 116.533 78.8387 116.837C78.8387 117.293 78.9906 117.635 79.3326 117.901C79.6365 118.091 79.9404 118.243 80.2063 118.433C80.5103 118.623 80.6622 118.889 80.6622 119.193C80.6622 119.421 80.5862 119.611 80.4343 119.801C80.2823 119.991 80.0924 120.067 79.8644 120.067C79.7125 120.067 79.5605 119.991 79.3705 119.877C79.1806 119.763 79.0666 119.649 78.9906 119.497L78.7627 120.143C79.0286 120.257 79.4085 120.333 79.8264 120.333C80.2063 120.333 80.5483 120.181 80.8142 119.915C81.0801 119.649 81.2321 119.231 81.2321 118.851Z" fill="#A70A2D"/>
<path fill-rule="evenodd" clip-rule="evenodd" d="M85.4489 117.863C85.4489 118.775 85.2209 119.383 84.7271 119.725C84.5371 119.877 84.3471 119.915 84.1192 119.915C83.7013 119.915 83.3974 119.725 83.1694 119.307C82.9795 118.965 82.9035 118.623 82.9035 118.205C82.9035 117.217 83.1694 116.572 83.6633 116.23C83.8533 116.116 84.0432 116.04 84.2332 116.04C84.6511 116.04 84.955 116.268 85.1829 116.686C85.3729 117.066 85.4489 117.445 85.4489 117.863ZM86.2467 117.863C86.2467 117.293 86.0947 116.838 85.7528 116.42C85.4109 115.964 84.917 115.736 84.3471 115.736C83.6633 115.736 83.2074 116.04 82.9415 116.686V113.304C82.8275 113.304 82.7136 113.304 82.5996 113.342C82.4856 113.304 82.3337 113.304 82.2577 113.304V119.421V119.459V119.497C82.2577 119.725 82.1817 119.839 82.0297 119.839C81.9917 119.839 81.9158 119.839 81.7638 119.801V119.991C81.9917 120.067 82.1437 120.105 82.2957 120.105C82.6756 120.105 82.8655 119.877 82.9415 119.421C83.1694 119.687 83.3214 119.877 83.4734 119.991C83.7013 120.143 83.9293 120.181 84.2332 120.181C84.879 120.181 85.3729 119.915 85.7528 119.421C86.0947 119.003 86.2467 118.471 86.2467 117.863Z" fill="#A70A2D"/>
<path fill-rule="evenodd" clip-rule="evenodd" d="M90.6539 117.977C90.6539 118.813 90.388 119.421 89.8561 119.763C89.6282 119.915 89.4382 119.953 89.2103 119.953C88.7544 119.953 88.4125 119.725 88.1846 119.269C87.9946 118.927 87.9186 118.547 87.9186 118.053C87.9186 117.141 88.1846 116.534 88.6784 116.154C88.8684 116.002 89.0963 115.964 89.3243 115.964C89.7802 115.964 90.1221 116.192 90.35 116.685C90.54 117.065 90.6539 117.483 90.6539 117.977ZM91.3758 117.939C91.3758 117.331 91.1858 116.799 90.8439 116.382C90.464 115.926 89.9321 115.698 89.3243 115.698C88.6784 115.698 88.1466 115.926 87.7287 116.382C87.3488 116.799 87.1588 117.331 87.1588 117.977V118.053C87.1588 118.357 87.1968 118.623 87.2728 118.889C87.4247 119.307 87.6527 119.611 87.9946 119.877C88.3365 120.105 88.7164 120.257 89.1723 120.257C89.8181 120.257 90.35 120.029 90.7679 119.573C91.1858 119.117 91.3758 118.585 91.3758 117.939Z" fill="#A70A2D"/>
<path fill-rule="evenodd" clip-rule="evenodd" d="M94.8707 119.231C94.6048 119.687 94.2629 119.877 93.845 119.877C93.5791 119.877 93.3891 119.801 93.2372 119.611C93.0852 119.459 93.0092 119.231 93.0092 119.003C93.0092 118.699 93.1612 118.433 93.4271 118.243C93.693 118.053 93.997 117.863 94.2629 117.711C94.5668 117.483 94.7948 117.255 94.8328 117.028V119.231H94.8707ZM96.0485 119.991V119.801C95.9345 119.839 95.8585 119.839 95.8205 119.839C95.6685 119.839 95.5926 119.725 95.5926 119.459V117.217C95.5926 116.23 95.1367 115.736 94.1869 115.736C93.921 115.736 93.5791 115.85 93.1232 116.078L93.3131 116.8C93.3511 116.61 93.5031 116.42 93.6551 116.268C93.807 116.116 93.997 116.04 94.2249 116.04C94.3769 116.04 94.5288 116.116 94.6428 116.23C94.7568 116.382 94.8328 116.496 94.8328 116.686C94.8328 116.914 94.6048 117.141 94.2249 117.331C93.5411 117.673 93.1612 117.863 93.0472 117.939C92.6293 118.243 92.4014 118.623 92.4014 119.117C92.4014 119.459 92.5153 119.725 92.7053 119.915C92.8953 120.105 93.1612 120.219 93.5031 120.219C94.1109 120.219 94.5668 119.991 94.9467 119.573C94.9847 119.953 95.1747 120.143 95.5546 120.143C95.6686 120.105 95.8585 120.067 96.0485 119.991Z" fill="#A70A2D"/>
<path fill-rule="evenodd" clip-rule="evenodd" d="M97.758 119.649C97.758 119.459 97.72 119.307 97.606 119.193C97.4921 119.079 97.3781 119.041 97.1881 119.041C96.9982 119.041 96.8462 119.117 96.7702 119.231C96.6943 119.345 96.6183 119.497 96.6183 119.649C96.6183 119.801 96.6563 119.953 96.7702 120.105C96.8842 120.219 96.9982 120.295 97.1881 120.295C97.3401 120.295 97.4921 120.219 97.606 120.105C97.72 119.953 97.758 119.801 97.758 119.649Z" fill="#A70A2D"/>
<path fill-rule="evenodd" clip-rule="evenodd" d="M104.292 114.976C104.292 115.432 104.102 115.774 103.722 116.002C103.418 116.192 103.001 116.268 102.469 116.268H102.279V113.608C102.317 113.608 102.393 113.608 102.545 113.608C102.659 113.608 102.735 113.608 102.811 113.608C103.343 113.608 103.722 113.722 103.95 113.912C104.178 114.178 104.292 114.52 104.292 114.976ZM105.128 114.786C105.128 114.33 104.938 113.988 104.596 113.684C104.254 113.418 103.874 113.304 103.381 113.304H101.443V120.143C101.557 120.105 101.709 120.067 101.823 120.067C101.975 120.067 102.127 120.105 102.279 120.143V116.686H102.697C103.76 116.686 104.52 116.306 104.938 115.546C105.052 115.28 105.128 115.014 105.128 114.786Z" fill="#A70A2D"/>
<path fill-rule="evenodd" clip-rule="evenodd" d="M108.395 117.977C108.395 118.813 108.13 119.421 107.598 119.763C107.37 119.915 107.18 119.953 106.952 119.953C106.496 119.953 106.154 119.725 105.926 119.269C105.736 118.927 105.66 118.547 105.66 118.053C105.66 117.141 105.926 116.534 106.42 116.154C106.61 116.002 106.838 115.964 107.066 115.964C107.522 115.964 107.864 116.192 108.092 116.685C108.32 117.065 108.395 117.483 108.395 117.977ZM109.155 117.939C109.155 117.331 108.965 116.799 108.623 116.382C108.244 115.926 107.712 115.698 107.104 115.698C106.458 115.698 105.926 115.926 105.508 116.382C105.128 116.799 104.938 117.331 104.938 117.977V118.053C104.938 118.357 104.976 118.623 105.052 118.889C105.204 119.307 105.432 119.611 105.774 119.877C106.116 120.105 106.496 120.257 106.952 120.257C107.598 120.257 108.13 120.029 108.547 119.573C108.965 119.117 109.155 118.585 109.155 117.939Z" fill="#A70A2D"/>
<path fill-rule="evenodd" clip-rule="evenodd" d="M112.498 116.572V115.964C112.27 115.812 112.004 115.736 111.776 115.736C111.396 115.736 111.055 115.888 110.827 116.23V115.736C110.713 115.774 110.599 115.812 110.485 115.812C110.371 115.812 110.257 115.774 110.105 115.736V119.421V119.459V119.497C110.105 119.725 110.029 119.839 109.915 119.839C109.915 119.839 109.801 119.839 109.649 119.801V119.991C109.839 120.067 110.029 120.105 110.219 120.105C110.409 120.105 110.523 120.067 110.675 119.953C110.789 119.877 110.827 119.725 110.827 119.573V117.217C110.827 116.952 110.941 116.686 111.131 116.458C111.321 116.23 111.548 116.116 111.814 116.116C112.08 116.078 112.308 116.268 112.498 116.572Z" fill="#A70A2D"/>
<path fill-rule="evenodd" clip-rule="evenodd" d="M119.299 117.863C119.299 118.775 119.071 119.383 118.577 119.725C118.387 119.877 118.197 119.915 117.969 119.915C117.551 119.915 117.247 119.725 117.019 119.307C116.829 118.965 116.753 118.623 116.753 118.205C116.753 117.217 117.019 116.572 117.513 116.23C117.703 116.116 117.893 116.04 118.083 116.04C118.501 116.04 118.805 116.268 119.033 116.686C119.223 117.066 119.299 117.445 119.299 117.863ZM120.096 117.863C120.096 117.293 119.944 116.838 119.603 116.42C119.261 115.964 118.767 115.736 118.197 115.736C117.513 115.736 117.057 116.04 116.791 116.686V113.304C116.677 113.304 116.563 113.304 116.449 113.342C116.335 113.304 116.183 113.304 116.107 113.304V119.421V119.459V119.497C116.107 119.725 116.031 119.839 115.879 119.839C115.841 119.839 115.765 119.839 115.614 119.801V119.991C115.841 120.067 115.993 120.105 116.145 120.105C116.525 120.105 116.715 119.877 116.791 119.421C117.019 119.687 117.171 119.877 117.323 119.991C117.551 120.143 117.779 120.181 118.083 120.181C118.729 120.181 119.223 119.915 119.603 119.421C119.944 119.003 120.096 118.471 120.096 117.863Z" fill="#A70A2D"/>
<path fill-rule="evenodd" clip-rule="evenodd" d="M124.503 117.977C124.503 118.813 124.237 119.421 123.705 119.763C123.477 119.915 123.287 119.953 123.06 119.953C122.604 119.953 122.262 119.725 122.034 119.269C121.844 118.927 121.768 118.547 121.768 118.053C121.768 117.141 122.034 116.534 122.528 116.154C122.718 116.002 122.946 115.964 123.174 115.964C123.629 115.964 123.971 116.192 124.199 116.685C124.389 117.065 124.503 117.483 124.503 117.977ZM125.225 117.939C125.225 117.331 125.035 116.799 124.693 116.382C124.313 115.926 123.781 115.698 123.174 115.698C122.528 115.698 121.996 115.926 121.578 116.382C121.198 116.799 121.008 117.331 121.008 117.977V118.053C121.008 118.357 121.046 118.623 121.122 118.889C121.274 119.307 121.502 119.611 121.844 119.877C122.186 120.105 122.566 120.257 123.022 120.257C123.667 120.257 124.199 120.029 124.617 119.573C125.035 119.117 125.225 118.585 125.225 117.939Z" fill="#A70A2D"/>
<path fill-rule="evenodd" clip-rule="evenodd" d="M128.72 119.231C128.454 119.687 128.112 119.877 127.695 119.877C127.429 119.877 127.239 119.801 127.087 119.611C126.935 119.459 126.859 119.231 126.859 119.003C126.859 118.699 127.011 118.433 127.277 118.243C127.543 118.053 127.846 117.863 128.112 117.711C128.416 117.483 128.644 117.255 128.682 117.028V119.231H128.72ZM129.898 119.991V119.801C129.784 119.839 129.708 119.839 129.67 119.839C129.518 119.839 129.442 119.725 129.442 119.459V117.217C129.442 116.23 128.986 115.736 128.036 115.736C127.77 115.736 127.429 115.85 126.973 116.078L127.163 116.8C127.201 116.61 127.353 116.42 127.505 116.268C127.657 116.116 127.846 116.04 128.074 116.04C128.226 116.04 128.378 116.116 128.492 116.23C128.606 116.382 128.682 116.496 128.682 116.686C128.682 116.914 128.454 117.141 128.074 117.331C127.391 117.673 127.011 117.863 126.897 117.939C126.479 118.243 126.251 118.623 126.251 119.117C126.251 119.459 126.365 119.725 126.555 119.915C126.745 120.105 127.011 120.219 127.353 120.219C127.96 120.219 128.416 119.991 128.796 119.573C128.834 119.953 129.024 120.143 129.404 120.143C129.518 120.105 129.708 120.067 129.898 119.991Z" fill="#A70A2D"/>
<path fill-rule="evenodd" clip-rule="evenodd" d="M132.861 118.851C132.861 118.395 132.709 118.053 132.367 117.825C132.063 117.635 131.759 117.483 131.493 117.293C131.19 117.103 131.038 116.837 131.038 116.533C131.038 116.192 131.266 116.04 131.645 116.04C131.949 116.04 132.139 116.154 132.291 116.42L132.519 115.964C132.253 115.812 131.987 115.774 131.683 115.774C131.379 115.774 131.076 115.85 130.848 116.078C130.62 116.268 130.468 116.533 130.468 116.837C130.468 117.293 130.62 117.635 130.962 117.901C131.266 118.091 131.569 118.243 131.835 118.433C132.139 118.623 132.291 118.889 132.291 119.193C132.291 119.421 132.215 119.611 132.063 119.801C131.911 119.991 131.721 120.067 131.493 120.067C131.341 120.067 131.19 119.991 131 119.877C130.81 119.763 130.696 119.649 130.62 119.497L130.392 120.143C130.658 120.257 131.038 120.333 131.455 120.333C131.835 120.333 132.177 120.181 132.443 119.915C132.709 119.649 132.861 119.231 132.861 118.851Z" fill="#A70A2D"/>
<path fill-rule="evenodd" clip-rule="evenodd" d="M140.003 119.763L139.889 119.345C139.472 119.725 139.13 119.915 138.826 119.915C138.294 119.915 137.914 119.687 137.61 119.269C137.344 118.889 137.23 118.433 137.23 117.939C137.23 117.445 137.306 117.065 137.458 116.761C137.686 116.344 138.028 116.154 138.484 116.154C138.712 116.154 138.94 116.192 139.168 116.306C139.396 116.42 139.547 116.533 139.623 116.723L139.813 116.116C139.547 115.964 139.396 115.888 139.282 115.85C139.13 115.812 138.94 115.774 138.712 115.774C138.028 115.774 137.458 115.964 137.04 116.382C136.622 116.799 136.394 117.331 136.394 117.977C136.394 118.623 136.584 119.155 136.964 119.573C137.382 120.029 137.914 120.257 138.56 120.257C139.092 120.257 139.585 120.105 140.003 119.763Z" fill="#A70A2D"/>
<path fill-rule="evenodd" clip-rule="evenodd" d="M143.536 119.231C143.27 119.687 142.929 119.877 142.511 119.877C142.245 119.877 142.055 119.801 141.903 119.611C141.751 119.459 141.675 119.231 141.675 119.003C141.675 118.699 141.827 118.433 142.093 118.243C142.359 118.053 142.663 117.863 142.929 117.711C143.233 117.483 143.46 117.255 143.498 117.028V119.231H143.536ZM144.676 119.991V119.801C144.562 119.839 144.486 119.839 144.448 119.839C144.296 119.839 144.22 119.725 144.22 119.459V117.217C144.22 116.23 143.764 115.736 142.815 115.736C142.549 115.736 142.207 115.85 141.751 116.078L141.941 116.8C141.979 116.61 142.131 116.42 142.283 116.268C142.435 116.116 142.625 116.04 142.853 116.04C143.005 116.04 143.157 116.116 143.271 116.23C143.384 116.382 143.46 116.496 143.46 116.686C143.46 116.914 143.233 117.141 142.853 117.331C142.169 117.673 141.789 117.863 141.675 117.939C141.257 118.243 141.029 118.623 141.029 119.117C141.029 119.459 141.143 119.725 141.333 119.915C141.523 120.105 141.789 120.219 142.131 120.219C142.739 120.219 143.195 119.991 143.574 119.573C143.612 119.953 143.802 120.143 144.182 120.143C144.296 120.105 144.486 120.067 144.676 119.991Z" fill="#A70A2D"/>
<path fill-rule="evenodd" clip-rule="evenodd" d="M149.235 119.991V119.801C149.083 119.839 148.969 119.839 148.969 119.839C148.855 119.839 148.779 119.725 148.779 119.497V119.459V119.421V115.774C148.665 115.812 148.551 115.85 148.475 115.85C148.361 115.85 148.247 115.812 148.095 115.774V118.585C148.095 118.661 148.095 118.775 148.057 118.927C147.943 119.497 147.601 119.801 147.07 119.801C146.348 119.801 146.006 119.345 146.006 118.395V115.812C145.892 115.85 145.778 115.888 145.664 115.888C145.55 115.888 145.436 115.85 145.322 115.812V118.623C145.322 119.079 145.436 119.497 145.702 119.763C145.968 120.105 146.348 120.257 146.842 120.257C147.411 120.257 147.829 120.029 148.171 119.611C148.171 119.953 148.361 120.143 148.741 120.143C148.855 120.105 149.045 120.067 149.235 119.991Z" fill="#A70A2D"/>
<path fill-rule="evenodd" clip-rule="evenodd" d="M152.199 118.851C152.199 118.395 152.047 118.053 151.743 117.825C151.439 117.635 151.135 117.483 150.869 117.293C150.565 117.103 150.375 116.837 150.375 116.533C150.375 116.192 150.603 116.04 150.983 116.04C151.287 116.04 151.477 116.154 151.629 116.42L151.857 115.964C151.591 115.812 151.325 115.774 151.021 115.774C150.717 115.774 150.413 115.85 150.185 116.078C149.957 116.268 149.805 116.533 149.805 116.837C149.805 117.293 149.957 117.635 150.261 117.901C150.565 118.091 150.869 118.243 151.135 118.433C151.439 118.623 151.629 118.889 151.629 119.193C151.629 119.421 151.553 119.611 151.401 119.801C151.249 119.991 151.059 120.067 150.831 120.067C150.679 120.067 150.527 119.991 150.337 119.877C150.147 119.763 150.033 119.649 149.957 119.497L149.729 120.143C149.995 120.257 150.375 120.333 150.831 120.333C151.211 120.333 151.553 120.181 151.819 119.915C152.085 119.649 152.199 119.231 152.199 118.851Z" fill="#A70A2D"/>
<path fill-rule="evenodd" clip-rule="evenodd" d="M155.694 119.231C155.428 119.687 155.086 119.877 154.668 119.877C154.402 119.877 154.212 119.801 154.06 119.611C153.908 119.459 153.832 119.231 153.832 119.003C153.832 118.699 153.984 118.433 154.25 118.243C154.516 118.053 154.82 117.863 155.086 117.711C155.39 117.483 155.618 117.255 155.656 117.028V119.231H155.694ZM156.871 119.991V119.801C156.757 119.839 156.681 119.839 156.644 119.839C156.492 119.839 156.416 119.725 156.416 119.459V117.217C156.416 116.23 155.922 115.736 155.01 115.736C154.744 115.736 154.402 115.85 153.946 116.078L154.136 116.8C154.174 116.61 154.326 116.42 154.478 116.268C154.63 116.116 154.82 116.04 155.048 116.04C155.2 116.04 155.352 116.116 155.466 116.23C155.58 116.382 155.656 116.496 155.656 116.686C155.656 116.914 155.428 117.141 155.048 117.331C154.364 117.673 153.984 117.863 153.87 117.939C153.452 118.243 153.224 118.623 153.224 119.117C153.224 119.459 153.338 119.725 153.528 119.915C153.718 120.105 153.984 120.219 154.326 120.219C154.934 120.219 155.39 119.991 155.77 119.573C155.808 119.953 155.998 120.143 156.378 120.143C156.492 120.105 156.682 120.067 156.871 119.991Z" fill="#A70A2D"/>
<path fill-rule="evenodd" clip-rule="evenodd" d="M159.873 118.851C159.873 118.395 159.721 118.053 159.379 117.825C159.075 117.635 158.771 117.483 158.505 117.293C158.201 117.103 158.011 116.837 158.011 116.533C158.011 116.192 158.239 116.04 158.619 116.04C158.923 116.04 159.113 116.154 159.265 116.42L159.493 115.964C159.227 115.812 158.961 115.774 158.657 115.774C158.353 115.774 158.049 115.85 157.821 116.078C157.593 116.268 157.441 116.533 157.441 116.837C157.441 117.293 157.593 117.635 157.897 117.901C158.201 118.091 158.505 118.243 158.771 118.433C159.075 118.623 159.265 118.889 159.265 119.193C159.265 119.421 159.189 119.611 159.037 119.801C158.885 119.991 158.695 120.067 158.467 120.067C158.315 120.067 158.163 119.991 157.973 119.877C157.783 119.763 157.669 119.649 157.593 119.497L157.365 120.143C157.631 120.257 158.011 120.333 158.429 120.333C158.809 120.333 159.151 120.181 159.417 119.915C159.721 119.535 159.873 119.231 159.873 118.851Z" fill="#A70A2D"/>
<path fill-rule="evenodd" clip-rule="evenodd" d="M162 119.649C162 119.459 161.962 119.307 161.848 119.193C161.734 119.079 161.62 119.041 161.43 119.041C161.24 119.041 161.088 119.117 161.012 119.231C160.936 119.345 160.86 119.497 160.86 119.649C160.86 119.801 160.898 119.953 161.012 120.105C161.126 120.219 161.24 120.295 161.43 120.295C161.582 120.295 161.734 120.219 161.848 120.105C161.962 119.953 162 119.801 162 119.649Z" fill="#A70A2D"/>
<path fill-rule="evenodd" clip-rule="evenodd" d="M22.7648 67.5259C22.7648 65.8163 22.2709 64.3727 21.3592 63.2709C20.7513 62.4731 19.4976 61.5234 17.7121 60.3837C14.7868 58.5221 13.3432 56.8125 13.3432 55.2929C13.3432 54.5331 13.6091 53.9253 14.065 53.3934C14.5589 52.8995 15.1667 52.6336 15.9265 52.6336C16.8003 52.6336 17.4841 52.8235 18.016 53.1655C18.4719 53.4694 18.9278 54.0013 19.4216 54.7611L20.2954 52.4057C19.3457 51.4939 17.94 51 16.1165 51C14.5968 51 13.4571 51.3039 12.6213 51.9498C11.8615 52.5576 11.2917 53.5454 11.0637 54.951C11.0257 55.2169 10.9878 55.4829 10.9878 55.7868C10.9878 57.9903 12.6973 60.3077 16.1924 62.7771C17.5221 63.7268 18.4719 64.5246 19.0037 65.1705C19.7636 66.1202 20.1815 67.2219 20.1815 68.4376C20.1815 69.6913 19.7256 70.869 18.8518 71.8188C17.902 72.8445 16.7623 73.3384 15.3946 73.3384C14.5589 73.3384 13.7231 73.0345 12.8493 72.3886C12.0135 71.7808 11.4816 71.097 11.2537 70.2992L10 72.5786C10.5699 73.2244 11.4056 73.7943 12.3934 74.3262C13.3812 74.82 14.2929 75.048 15.1667 75.048C17.2562 75.048 19.0417 74.2882 20.5234 72.7686C22.005 71.2489 22.7648 69.5014 22.7648 67.5259ZM42.5958 74.858C42.064 74.6681 41.4561 74.5921 40.8483 74.5921C40.2784 74.5921 39.8225 74.7061 39.4806 74.858L32.1105 55.8628L24.6643 74.858C24.2464 74.7061 23.8665 74.6681 23.4486 74.6681C23.0307 74.6681 22.7268 74.7441 22.3849 74.858L31.4266 52.2537C31.7306 52.3297 31.9585 52.3677 32.2244 52.3677C32.4524 52.3677 32.7183 52.3297 33.0602 52.2537L42.5958 74.858ZM61.2112 75.5039V52.2537C60.9832 52.4436 60.6793 52.4816 60.3754 52.4816C60.0335 52.4816 59.7676 52.4056 59.4256 52.2537V69.4254L43.3557 51.038V74.82C43.6216 74.5921 43.8875 74.4401 44.2294 74.4401C44.5714 74.4401 44.8373 74.5921 45.1032 74.82V56.3947L61.2112 75.5039ZM79.1807 53.9253C79.0667 53.6213 79.0287 53.3554 79.0287 53.0895C79.0287 52.8235 79.0667 52.5576 79.1807 52.2537H63.9085C64.0225 52.5196 64.0605 52.7856 64.0605 53.0895C64.0605 53.3554 64.0225 53.6213 63.9085 53.9253H70.2529V72.6926C70.2529 73.2624 70.4809 73.7563 70.8608 74.1362C71.2787 74.5161 71.8105 74.6681 72.4184 74.6681C73.0262 74.6681 73.7481 74.5161 74.4319 74.2502V73.5284C73.824 73.6423 73.4821 73.6803 73.4441 73.6803C72.9503 73.6803 72.6843 73.2624 72.6843 72.4266V72.2367V72.1227V53.8873H79.1807V53.9253ZM97.3401 74.858C96.8083 74.6681 96.2004 74.5921 95.5926 74.5921C95.0227 74.5921 94.5668 74.7061 94.2249 74.858L86.8548 55.8628L79.4086 74.858C78.9907 74.7061 78.6108 74.6681 78.1929 74.6681C77.775 74.6681 77.4711 74.7441 77.1292 74.858L86.1709 52.2537C86.4749 52.3297 86.7028 52.3677 86.9688 52.3677C87.1967 52.3677 87.4626 52.3297 87.8045 52.2537L97.3401 74.858Z" fill="#A70A2D"/>
</svg>
